<svg width="99" height="39" viewBox="0 0 99 39" fill="none" xmlns="http://www.w3.org/2000/svg">
<g filter="url(#filter0_dii_272_1065)">
<rect x="-0.11107" y="-0.110585" width="8.64156" height="8.82516" rx="1.10768" transform="matrix(0.999998 -0.0022149 0.00216777 0.999998 74.6526 14.5994)" stroke="url(#paint0_linear_272_1065)" stroke-width="0.221661"/>
<rect width="6.43875" height="6.57915" transform="matrix(0.999998 -0.00223879 0.00214439 0.999998 75.6494 15.605)" fill="url(#paint1_linear_272_1065)"/>
<rect width="0.852063" height="0.170413" transform="matrix(0.999999 -0.00111936 0.00107223 0.999999 74.6592 15.6157)" fill="#EC3678"/>
<rect width="0.852063" height="0.170413" transform="matrix(0.999999 -0.00111936 0.00107223 0.999999 74.6592 15.9565)" fill="#EC3678"/>
<rect width="0.852063" height="0.170413" transform="matrix(0.999999 -0.00111936 0.00107223 0.999999 74.6602 16.2974)" fill="#EC3678"/>
<rect width="0.852063" height="0.170413" transform="matrix(0.999999 -0.00111936 0.00107223 0.999999 74.6602 16.6382)" fill="#EC3678"/>
<rect width="0.852063" height="0.170413" transform="matrix(0.999999 -0.00111936 0.00107223 0.999999 74.6611 16.979)" fill="#EC3678"/>
<rect width="0.852063" height="0.170413" transform="matrix(0.999999 -0.00111936 0.00107223 0.999999 74.6611 17.3198)" fill="#EC3678"/>
<rect width="0.852063" height="0.170413" transform="matrix(0.999999 -0.00111936 0.00107223 0.999999 74.6611 17.6606)" fill="#EC3678"/>
<rect width="0.852063" height="0.170413" transform="matrix(0.999999 -0.00111936 0.00107223 0.999999 74.6621 18.0015)" fill="#EC3678"/>
<rect width="0.852063" height="0.170413" transform="matrix(0.999999 -0.00111936 0.00107223 0.999999 74.6621 18.3423)" fill="#EC3678"/>
<rect width="0.852063" height="0.170413" transform="matrix(0.999999 -0.00111936 0.00107223 0.999999 74.6631 18.6831)" fill="#EC3678"/>
<rect width="0.852063" height="0.170413" transform="matrix(0.999999 -0.00111936 0.00107223 0.999999 74.6631 19.0239)" fill="#EC3678"/>
<rect width="0.852063" height="0.170413" transform="matrix(0.999999 -0.00111936 0.00107223 0.999999 74.6631 19.3647)" fill="#EC3678"/>
<rect width="0.852063" height="0.170413" transform="matrix(0.999999 -0.00111936 0.00107223 0.999999 74.6641 19.7056)" fill="#EC3678"/>
<rect width="0.852063" height="0.170413" transform="matrix(0.999999 -0.00111936 0.00107223 0.999999 74.6641 20.0464)" fill="#EC3678"/>
<rect width="0.852063" height="0.170413" transform="matrix(0.999999 -0.00111936 0.00107223 0.999999 74.6641 20.3872)" fill="#EC3678"/>
<rect width="0.852063" height="0.170413" transform="matrix(0.999999 -0.00111936 0.00107223 0.999999 74.665 20.728)" fill="#EC3678"/>
<rect width="0.852063" height="0.170413" transform="matrix(0.999999 -0.00111936 0.00107223 0.999999 74.665 21.0688)" fill="#EC3678"/>
<rect width="0.852063" height="0.170413" transform="matrix(0.999999 -0.00111936 0.00107223 0.999999 74.665 21.4097)" fill="#EC3678"/>
<rect width="0.852063" height="0.170413" transform="matrix(0.999999 -0.00111936 0.00107223 0.999999 74.666 21.7505)" fill="#EC3678"/>
<rect width="0.852063" height="0.170413" transform="matrix(-0.999995 0.00335821 0.00321655 0.999995 83.0703 15.5967)" fill="#EC3678"/>
<rect width="0.852063" height="0.170413" transform="matrix(-0.999995 0.00335821 0.00321655 0.999995 83.0713 15.9375)" fill="#EC3678"/>
<rect width="0.852063" height="0.170413" transform="matrix(-0.999995 0.00335821 0.00321655 0.999995 83.0723 16.2783)" fill="#EC3678"/>
<rect width="0.852063" height="0.170413" transform="matrix(-0.999995 0.00335821 0.00321655 0.999995 83.0732 16.6191)" fill="#EC3678"/>
<rect width="0.852063" height="0.170413" transform="matrix(-0.999995 0.00335821 0.00321655 0.999995 83.0742 16.96)" fill="#EC3678"/>
<rect width="0.852063" height="0.170413" transform="matrix(-0.999995 0.00335821 0.00321655 0.999995 83.0762 17.3008)" fill="#EC3678"/>
<rect width="0.852063" height="0.170413" transform="matrix(-0.999995 0.00335821 0.00321655 0.999995 83.0771 17.6421)" fill="#EC3678"/>
<rect width="0.852063" height="0.170413" transform="matrix(-0.999995 0.00335821 0.00321655 0.999995 83.0781 17.9824)" fill="#EC3678"/>
<rect width="0.852063" height="0.170413" transform="matrix(-0.999995 0.00335821 0.00321655 0.999995 83.0791 18.3232)" fill="#EC3678"/>
<rect width="0.852063" height="0.170413" transform="matrix(-0.999995 0.00335821 0.00321655 0.999995 83.0801 18.6641)" fill="#EC3678"/>
<rect width="0.852063" height="0.170413" transform="matrix(-0.999995 0.00335821 0.00321655 0.999995 83.0811 19.0049)" fill="#EC3678"/>
<rect width="0.852063" height="0.170413" transform="matrix(-0.999995 0.00335821 0.00321655 0.999995 83.083 19.3457)" fill="#EC3678"/>
<rect width="0.852063" height="0.170413" transform="matrix(-0.999995 0.00335821 0.00321655 0.999995 83.084 19.6865)" fill="#EC3678"/>
<rect width="0.852063" height="0.170413" transform="matrix(-0.999995 0.00335821 0.00321655 0.999995 83.084 20.0273)" fill="#EC3678"/>
<rect width="0.852063" height="0.170413" transform="matrix(-0.999995 0.00335821 0.00321655 0.999995 83.0859 20.3682)" fill="#EC3678"/>
<rect width="0.852063" height="0.170413" transform="matrix(-0.999995 0.00335821 0.00321655 0.999995 83.0869 20.709)" fill="#EC3678"/>
<rect width="0.852063" height="0.170413" transform="matrix(-0.999995 0.00335821 0.00321655 0.999995 83.0879 21.0498)" fill="#EC3678"/>
<rect width="0.852063" height="0.170413" transform="matrix(-0.999995 0.00335821 0.00321655 0.999995 83.0889 21.3906)" fill="#EC3678"/>
<rect width="0.852063" height="0.170413" transform="matrix(-0.999995 0.00335821 0.00321655 0.999995 83.0898 21.7314)" fill="#EC3678"/>
<rect width="0.852063" height="0.170413" transform="matrix(-0.00107223 -0.999999 0.999999 -0.00111936 75.665 23.2046)" fill="#EC3678"/>
<rect width="0.852063" height="0.170413" transform="matrix(-0.00107223 -0.999999 0.999999 -0.00111936 76.0059 23.2041)" fill="#EC3678"/>
<rect width="0.852063" height="0.170413" transform="matrix(-0.00107223 -0.999999 0.999999 -0.00111936 76.3467 23.2036)" fill="#EC3678"/>
<rect width="0.852063" height="0.170413" transform="matrix(-0.00107223 -0.999999 0.999999 -0.00111936 76.6875 23.2036)" fill="#EC3678"/>
<rect width="0.852063" height="0.170413" transform="matrix(-0.00107223 -0.999999 0.999999 -0.00111936 77.0283 23.2031)" fill="#EC3678"/>
<rect width="0.852063" height="0.170413" transform="matrix(-0.00107223 -0.999999 0.999999 -0.00111936 77.3691 23.2026)" fill="#EC3678"/>
<rect width="0.852063" height="0.170413" transform="matrix(-0.00107223 -0.999999 0.999999 -0.00111936 77.71 23.2021)" fill="#EC3678"/>
<rect width="0.852063" height="0.170413" transform="matrix(-0.00107223 -0.999999 0.999999 -0.00111936 78.0508 23.2021)" fill="#EC3678"/>
<rect width="0.852063" height="0.170413" transform="matrix(-0.00107223 -0.999999 0.999999 -0.00111936 78.3916 23.2017)" fill="#EC3678"/>
<rect width="0.852063" height="0.170413" transform="matrix(-0.00107223 -0.999999 0.999999 -0.00111936 78.7324 23.2012)" fill="#EC3678"/>
<rect width="0.852063" height="0.170413" transform="matrix(-0.00107223 -0.999999 0.999999 -0.00111936 79.0732 23.2007)" fill="#EC3678"/>
<rect width="0.852063" height="0.170413" transform="matrix(-0.00107223 -0.999999 0.999999 -0.00111936 79.4141 23.2002)" fill="#EC3678"/>
<rect width="0.852063" height="0.170413" transform="matrix(-0.00107223 -0.999999 0.999999 -0.00111936 79.7549 23.2002)" fill="#EC3678"/>
<rect width="0.852063" height="0.170413" transform="matrix(-0.00107223 -0.999999 0.999999 -0.00111936 80.0957 23.1997)" fill="#EC3678"/>
<rect width="0.852063" height="0.170413" transform="matrix(-0.00107223 -0.999999 0.999999 -0.00111936 80.4365 23.1992)" fill="#EC3678"/>
<rect width="0.852063" height="0.170413" transform="matrix(-0.00107223 -0.999999 0.999999 -0.00111936 80.7773 23.1987)" fill="#EC3678"/>
<rect width="0.852063" height="0.170413" transform="matrix(-0.00107223 -0.999999 0.999999 -0.00111936 81.1182 23.1982)" fill="#EC3678"/>
<rect width="0.852063" height="0.170413" transform="matrix(-0.00107223 -0.999999 0.999999 -0.00111936 81.459 23.1982)" fill="#EC3678"/>
<rect width="0.852063" height="0.170413" transform="matrix(-0.00107223 -0.999999 0.999999 -0.00111936 81.7998 23.1978)" fill="#EC3678"/>
<rect width="0.852063" height="0.170413" transform="matrix(0.00324951 0.999995 0.999995 -0.00332432 75.6465 14.6084)" fill="#EC3678"/>
<rect width="0.852063" height="0.170413" transform="matrix(0.00324951 0.999995 0.999995 -0.00332432 75.9873 14.6074)" fill="#EC3678"/>
<rect width="0.852063" height="0.170413" transform="matrix(0.00324951 0.999995 0.999995 -0.00332432 76.3281 14.6064)" fill="#EC3678"/>
<rect width="0.852063" height="0.170413" transform="matrix(0.00324951 0.999995 0.999995 -0.00332432 76.6689 14.605)" fill="#EC3678"/>
<rect width="0.852063" height="0.170413" transform="matrix(0.00324951 0.999995 0.999995 -0.00332432 77.0098 14.604)" fill="#EC3678"/>
<rect width="0.852063" height="0.170413" transform="matrix(0.00324951 0.999995 0.999995 -0.00332432 77.3506 14.603)" fill="#EC3678"/>
<rect width="0.852063" height="0.170413" transform="matrix(0.00324951 0.999995 0.999995 -0.00332432 77.6914 14.6016)" fill="#EC3678"/>
<rect width="0.852063" height="0.170413" transform="matrix(0.00324951 0.999995 0.999995 -0.00332432 78.0322 14.6006)" fill="#EC3678"/>
<rect width="0.852063" height="0.170413" transform="matrix(0.00324951 0.999995 0.999995 -0.00332432 78.373 14.5991)" fill="#EC3678"/>
<rect width="0.852063" height="0.170413" transform="matrix(0.00324951 0.999995 0.999995 -0.00332432 78.7139 14.5981)" fill="#EC3678"/>
<rect width="0.852063" height="0.170413" transform="matrix(0.00324951 0.999995 0.999995 -0.00332432 79.0547 14.5972)" fill="#EC3678"/>
<rect width="0.852063" height="0.170413" transform="matrix(0.00324951 0.999995 0.999995 -0.00332432 79.3955 14.5957)" fill="#EC3678"/>
<rect width="0.852063" height="0.170413" transform="matrix(0.00324951 0.999995 0.999995 -0.00332432 79.7363 14.5947)" fill="#EC3678"/>
<rect width="0.852063" height="0.170413" transform="matrix(0.00324951 0.999995 0.999995 -0.00332432 80.0771 14.5938)" fill="#EC3678"/>
<rect width="0.852063" height="0.170413" transform="matrix(0.00324951 0.999995 0.999995 -0.00332432 80.418 14.5928)" fill="#EC3678"/>
<rect width="0.852063" height="0.170413" transform="matrix(0.00324951 0.999995 0.999995 -0.00332432 80.7588 14.5913)" fill="#EC3678"/>
<rect width="0.852063" height="0.170413" transform="matrix(0.00324951 0.999995 0.999995 -0.00332432 81.0996 14.5903)" fill="#EC3678"/>
<rect width="0.852063" height="0.170413" transform="matrix(0.00324951 0.999995 0.999995 -0.00332432 81.4404 14.5894)" fill="#EC3678"/>
<rect width="0.852063" height="0.170413" transform="matrix(0.00324951 0.999995 0.999995 -0.00332432 81.7812 14.5879)" fill="#EC3678"/>
</g>
<g filter="url(#filter1_dii_272_1065)">
<path d="M80.8469 9.00995C85.7358 9.00447 89.7793 13.2839 89.785 18.6286C89.7907 23.9182 85.706 28.2619 80.8675 28.2673L76.8996 28.2718C72.0611 28.2772 67.9671 23.9427 67.9615 18.6531C67.9558 13.3084 71.9901 9.01988 76.879 9.0144L78.863 9.01218L80.8469 9.00995ZM80.8637 24.7199C83.787 24.7166 86.3165 21.8283 86.3131 18.6325C86.3096 15.3816 83.8249 13.0608 80.8513 13.0641L76.8833 13.0686C73.9097 13.0719 71.4299 15.3983 71.4334 18.6492C71.4368 21.845 73.9726 24.7276 76.8958 24.7244L80.8637 24.7199Z" fill="url(#paint2_linear_272_1065)"/>
</g>
<path d="M16.257 9.08248L19.9202 9.0784L19.9409 28.3358L16.2778 28.3399C16.2756 26.3894 15.4715 24.5222 14.0797 23.2052L3.66782 13.4095L3.68392 28.3539L0.0207498 28.358L0 9.10059L4.54554 9.09552L16.2689 20.1534L16.257 9.08248Z" fill="white"/>
<path d="M27.4566 12.8885C26.5742 12.8895 25.8264 13.6321 25.8274 14.5661C25.8283 15.4726 26.5778 16.241 27.4602 16.24L37.8347 16.2285L37.8388 19.992L27.4643 20.0036C26.5819 20.0046 25.8343 21.0218 25.8356 22.2306C25.8369 23.4118 26.5867 24.4274 27.469 24.4265L41.3998 24.4109L41.4039 28.202L27.4731 28.2175C24.5586 28.2207 22.176 25.5312 22.1724 22.2347C22.1708 20.6963 22.6773 19.2672 23.5318 18.2223C22.6751 17.2343 22.1657 15.9712 22.1642 14.5702C22.1609 11.5483 24.538 9.10072 27.4525 9.09748L44.6186 9.07836L44.6227 12.8694L27.4566 12.8885Z" fill="white"/>
<path d="M63.7235 22.7927L66.4834 28.2839L62.339 28.2885L60.4632 24.5271C60.0881 23.7858 59.4727 23.4293 57.1465 23.4319L51.0234 23.4387L51.0193 19.6477L59.4954 19.6382C60.5382 19.6371 61.5 18.9767 61.8466 17.9873C62.3265 16.6957 62.4582 14.8549 61.7351 13.7844C61.6012 13.5647 61.1191 12.851 59.4881 12.8528L49.7285 12.8637L49.7451 28.3026L46.082 28.3067L46.0613 9.07675L59.484 9.0618C62.4252 9.05852 63.9775 10.4578 64.781 11.6382C66.3879 14.0264 66.0705 17.2959 65.2973 19.3296C64.8974 20.4289 64.1765 21.3637 63.3216 22.0789C63.4555 22.2986 63.6162 22.5456 63.7235 22.7927Z" fill="white"/>
<path d="M3.65615 35.6716C3.65642 35.9189 3.58566 36.1389 3.44388 36.3314C3.30669 36.5239 3.10533 36.6753 2.8398 36.7855C2.57885 36.8957 2.25601 36.951 1.87129 36.9514C1.55526 36.9518 1.24377 36.9132 0.936819 36.8357C0.634449 36.7582 0.389302 36.6554 0.20138 36.5274L0.578372 35.7231C0.757124 35.842 0.96562 35.9357 1.20386 36.0041C1.4421 36.0725 1.68488 36.1066 1.93221 36.1063C2.17495 36.1061 2.34438 36.0715 2.44049 36.0027C2.5366 35.9339 2.5846 35.8537 2.5845 35.7621C2.5844 35.6705 2.54081 35.5973 2.45373 35.5424C2.37123 35.4875 2.26126 35.4442 2.12382 35.4122C1.99096 35.3758 1.84207 35.3416 1.67715 35.3097C1.51681 35.2778 1.35418 35.2368 1.18924 35.1866C1.02888 35.1364 0.879956 35.0701 0.742464 34.9878C0.609547 34.901 0.499504 34.7889 0.412334 34.6516C0.329739 34.5097 0.288328 34.3334 0.288101 34.1227C0.287834 33.8754 0.358591 33.6577 0.500372 33.4698C0.646728 33.2773 0.85267 33.1259 1.1182 33.0157C1.38373 32.9055 1.69969 32.8502 2.0661 32.8497C2.31343 32.8495 2.56536 32.8767 2.82191 32.9313C3.07845 32.986 3.30297 33.0728 3.49546 33.1917L3.14595 33.9959C2.96721 33.8861 2.78163 33.8085 2.58922 33.7629C2.40138 33.7173 2.21357 33.6946 2.02579 33.6948C1.79679 33.6951 1.62965 33.7296 1.52438 33.7984C1.41911 33.8672 1.36653 33.9543 1.36665 34.0597C1.36675 34.1513 1.40805 34.2245 1.49055 34.2794C1.57305 34.3342 1.68073 34.3799 1.81359 34.4164C1.95103 34.4483 2.10221 34.4802 2.26713 34.5121C2.43205 34.544 2.59468 34.585 2.75504 34.6352C2.91539 34.6808 3.06432 34.7448 3.20181 34.8271C3.3393 34.9094 3.44934 35.0192 3.53193 35.1565C3.61452 35.2892 3.65592 35.4609 3.65615 35.6716ZM4.34296 36.8731L4.3387 32.9228L5.24556 32.9218L6.88352 35.5787L6.44383 35.5792L8.04171 32.9187L8.95544 32.9176L8.97344 36.868L7.95666 36.8691L7.9472 34.4645L8.09834 34.4644L6.89133 36.4512L6.40355 36.4517L5.15104 34.4677L5.35028 34.4674L5.35287 36.872L4.34296 36.8731ZM9.43476 36.8674L11.203 32.9151L12.2747 32.9139L14.0584 36.8623L12.9866 36.8635L11.5608 33.4369L11.9249 33.4365L10.4859 36.8663L9.43476 36.8674ZM10.4026 36.0832L10.6834 35.2997L12.6346 35.2975L12.9171 36.0804L10.4026 36.0832ZM14.5274 36.8618L14.5232 32.9114L16.3231 32.9094C16.6896 32.909 17.0034 32.9682 17.2645 33.087C17.5303 33.2012 17.7366 33.3659 17.8834 33.581C18.0302 33.7961 18.1038 34.0571 18.1041 34.3639C18.1044 34.6616 18.0314 34.9182 17.8851 35.1336C17.7387 35.3491 17.5328 35.5142 17.2673 35.629C17.0063 35.7438 16.6927 35.8014 16.3263 35.8018L15.124 35.8031L15.6113 35.3423L15.6129 36.8606L14.5274 36.8618ZM17.0144 36.859L16.0167 35.4243L17.1709 35.423L18.1823 36.8577L17.0144 36.859ZM15.6114 35.4659L15.2124 34.9786L16.2498 34.9774C16.5017 34.9772 16.6917 34.9243 16.8199 34.8188C16.948 34.7087 17.0119 34.5575 17.0117 34.3651C17.0115 34.1682 16.9472 34.0171 16.8189 33.9119C16.6905 33.8067 16.5004 33.7543 16.2485 33.7545L15.2111 33.7557L15.609 33.2675L15.6114 35.4659ZM19.6236 36.8561L19.6203 33.7508L18.3768 33.7522L18.3759 32.9071L21.9484 32.9032L21.9493 33.7482L20.7058 33.7496L20.7091 36.8549L19.6236 36.8561ZM24.4569 36.8507L24.4527 32.9004L25.5382 32.8992L25.5415 36.0045L27.472 36.0023L27.4729 36.8474L24.4569 36.8507ZM28.0597 36.8467L28.0555 32.8964L29.141 32.8952L29.1452 36.8455L28.0597 36.8467ZM32.1238 36.9177C31.6979 36.9182 31.3177 36.8316 30.9831 36.658C30.6486 36.4797 30.385 36.235 30.1923 35.9237C29.9996 35.6125 29.903 35.2599 29.9026 34.866C29.9021 34.4722 29.998 34.1217 30.19 33.8146C30.382 33.5075 30.6451 33.2645 30.9793 33.0855C31.3134 32.9065 31.6935 32.8167 32.1194 32.8163C32.5454 32.8158 32.9256 32.9047 33.2602 33.0829C33.5947 33.2612 33.8583 33.5036 34.051 33.8103C34.2437 34.1169 34.3403 34.4672 34.3407 34.8611C34.3411 35.255 34.2453 35.6078 34.0533 35.9194C33.8613 36.2311 33.5982 36.4764 33.264 36.6554C32.9298 36.8298 32.5498 36.9173 32.1238 36.9177ZM33.4507 37.7819C33.2217 37.7822 33.011 37.7503 32.8186 37.6864C32.6307 37.6271 32.4382 37.5197 32.2411 37.3642C32.0486 37.2132 31.8285 37.0074 31.5809 36.7466L32.7211 36.4705C32.822 36.6078 32.9091 36.7153 32.9825 36.7931C33.0604 36.8709 33.1383 36.9258 33.2162 36.9578C33.2941 36.9897 33.3789 37.0057 33.4705 37.0056C33.6903 37.0053 33.8895 36.9158 34.0679 36.737L34.5563 37.3066C34.4237 37.4671 34.2635 37.5864 34.0758 37.6644C33.8881 37.7425 33.6797 37.7817 33.4507 37.7819ZM32.1229 36.0315C32.3427 36.0313 32.535 35.9829 32.6998 35.8866C32.8692 35.7856 33.0019 35.6458 33.0978 35.4671C33.1938 35.2883 33.2417 35.0868 33.2415 34.8623C33.2412 34.6379 33.1929 34.4387 33.0965 34.2648C33.0002 34.0908 32.8672 33.9536 32.6976 33.853C32.5326 33.7524 32.3402 33.7023 32.1204 33.7025C31.9051 33.7028 31.7128 33.7534 31.5434 33.8543C31.3741 33.9553 31.2391 34.0928 31.1386 34.267C31.0426 34.4411 30.9947 34.6404 30.9949 34.8648C30.9952 35.0893 31.0435 35.2907 31.1399 35.4692C31.2408 35.6478 31.3761 35.7873 31.5456 35.8879C31.7152 35.9839 31.9076 36.0317 32.1229 36.0315ZM36.9386 36.9124C36.5493 36.9128 36.2149 36.8422 35.9353 36.7005C35.6558 36.5589 35.4403 36.3553 35.2889 36.0898C35.142 35.8197 35.0684 35.5015 35.068 35.1351L35.0656 32.8886L36.1511 32.8873L36.1534 35.0995C36.1538 35.4064 36.2227 35.6376 36.3603 35.7932C36.4979 35.9488 36.6949 36.0264 36.9514 36.0261C37.2079 36.0258 37.4024 35.9478 37.5351 35.7919C37.6677 35.636 37.7339 35.4046 37.7336 35.0978L37.7312 32.8856L38.8029 32.8844L38.8054 35.1309C38.8057 35.4973 38.7328 35.8157 38.5865 36.0861C38.4403 36.3519 38.2275 36.556 37.9483 36.6983C37.669 36.8406 37.3325 36.9119 36.9386 36.9124ZM39.8209 36.8336L39.8166 32.8833L40.9021 32.8821L40.9063 36.8324L39.8209 36.8336ZM41.9544 36.8312L41.9501 32.8809L43.8119 32.8788C44.2653 32.8783 44.6593 32.958 44.9938 33.118C45.3329 33.2779 45.5943 33.5066 45.7778 33.8041C45.9659 34.097 46.0602 34.4473 46.0606 34.8549C46.061 35.258 45.9675 35.6084 45.78 35.9064C45.5972 36.1997 45.3363 36.4267 44.9976 36.5874C44.6634 36.7481 44.2696 36.8286 43.8162 36.8292L41.9544 36.8312ZM43.0389 35.9781L43.7809 35.9773C44.0237 35.977 44.232 35.9333 44.4059 35.8461C44.5845 35.7588 44.7217 35.6327 44.8178 35.4677C44.9138 35.2982 44.9616 35.0943 44.9614 34.8561C44.9611 34.6134 44.9128 34.4096 44.8164 34.2449C44.7201 34.0755 44.5825 33.9474 44.4038 33.8606C44.2297 33.7738 44.0212 33.7305 43.7785 33.7308L43.0365 33.7316L43.0389 35.9781Z" fill="white"/>
<defs>
<filter id="filter0_dii_272_1065" x="65.688" y="5.61666" width="26.3673" height="26.5504" filterUnits="userSpaceOnUse" color-interpolation-filters="sRGB">
<feFlood flood-opacity="0" result="BackgroundImageFix"/>
<feColorMatrix in="SourceAlpha" type="matrix" values="0 0 0 0 0 0 0 0 0 0 0 0 0 0 0 0 0 0 127 0" result="hardAlpha"/>
<feOffset/>
<feGaussianBlur stdDeviation="4.37233"/>
<feComposite in2="hardAlpha" operator="out"/>
<feColorMatrix type="matrix" values="0 0 0 0 0 0 0 0 0 0 0 0 0 0 0 0 0 0 0.25 0"/>
<feBlend mode="normal" in2="BackgroundImageFix" result="effect1_dropShadow_272_1065"/>
<feBlend mode="normal" in="SourceGraphic" in2="effect1_dropShadow_272_1065" result="shape"/>
<feColorMatrix in="SourceAlpha" type="matrix" values="0 0 0 0 0 0 0 0 0 0 0 0 0 0 0 0 0 0 127 0" result="hardAlpha"/>
<feOffset dy="0.699573"/>
<feGaussianBlur stdDeviation="1.3117"/>
<feComposite in2="hardAlpha" operator="arithmetic" k2="-1" k3="1"/>
<feColorMatrix type="matrix" values="0 0 0 0 1 0 0 0 0 1 0 0 0 0 1 0 0 0 0.4 0"/>
<feBlend mode="normal" in2="shape" result="effect2_innerShadow_272_1065"/>
<feColorMatrix in="SourceAlpha" type="matrix" values="0 0 0 0 0 0 0 0 0 0 0 0 0 0 0 0 0 0 127 0" result="hardAlpha"/>
<feOffset dy="-1.04936"/>
<feGaussianBlur stdDeviation="1.22425"/>
<feComposite in2="hardAlpha" operator="arithmetic" k2="-1" k3="1"/>
<feColorMatrix type="matrix" values="0 0 0 0 0 0 0 0 0 0 0 0 0 0 0 0 0 0 0.25 0"/>
<feBlend mode="normal" in2="effect2_innerShadow_272_1065" result="effect3_innerShadow_272_1065"/>
</filter>
<filter id="filter1_dii_272_1065" x="59.2172" y="0.265099" width="39.3126" height="36.7515" filterUnits="userSpaceOnUse" color-interpolation-filters="sRGB">
<feFlood flood-opacity="0" result="BackgroundImageFix"/>
<feColorMatrix in="SourceAlpha" type="matrix" values="0 0 0 0 0 0 0 0 0 0 0 0 0 0 0 0 0 0 127 0" result="hardAlpha"/>
<feOffset/>
<feGaussianBlur stdDeviation="4.37233"/>
<feComposite in2="hardAlpha" operator="out"/>
<feColorMatrix type="matrix" values="0 0 0 0 0 0 0 0 0 0 0 0 0 0 0 0 0 0 0.25 0"/>
<feBlend mode="normal" in2="BackgroundImageFix" result="effect1_dropShadow_272_1065"/>
<feBlend mode="normal" in="SourceGraphic" in2="effect1_dropShadow_272_1065" result="shape"/>
<feColorMatrix in="SourceAlpha" type="matrix" values="0 0 0 0 0 0 0 0 0 0 0 0 0 0 0 0 0 0 127 0" result="hardAlpha"/>
<feOffset dy="0.699573"/>
<feGaussianBlur stdDeviation="1.3117"/>
<feComposite in2="hardAlpha" operator="arithmetic" k2="-1" k3="1"/>
<feColorMatrix type="matrix" values="0 0 0 0 1 0 0 0 0 1 0 0 0 0 1 0 0 0 0.4 0"/>
<feBlend mode="normal" in2="shape" result="effect2_innerShadow_272_1065"/>
<feColorMatrix in="SourceAlpha" type="matrix" values="0 0 0 0 0 0 0 0 0 0 0 0 0 0 0 0 0 0 127 0" result="hardAlpha"/>
<feOffset dy="-1.04936"/>
<feGaussianBlur stdDeviation="1.22425"/>
<feComposite in2="hardAlpha" operator="arithmetic" k2="-1" k3="1"/>
<feColorMatrix type="matrix" values="0 0 0 0 0 0 0 0 0 0 0 0 0 0 0 0 0 0 0.25 0"/>
<feBlend mode="normal" in2="effect2_innerShadow_272_1065" result="effect3_innerShadow_272_1065"/>
</filter>
<linearGradient id="paint0_linear_272_1065" x1="4.20995" y1="0" x2="4.20995" y2="8.6035" gradientUnits="userSpaceOnUse">
<stop stop-color="#F24572"/>
<stop offset="0.9375" stop-color="#E41882"/>
</linearGradient>
<linearGradient id="paint1_linear_272_1065" x1="6.43872" y1="6.52961" x2="-0.984786" y2="1.33834" gradientUnits="userSpaceOnUse">
<stop stop-color="#EC008C"/>
<stop offset="1" stop-color="#FC6767"/>
</linearGradient>
<linearGradient id="paint2_linear_272_1065" x1="67.9512" y1="9.0242" x2="90.5037" y2="27.3872" gradientUnits="userSpaceOnUse">
<stop offset="0.00553601" stop-color="#FF512F"/>
<stop offset="1" stop-color="#DD2476"/>
</linearGradient>
</defs>
</svg>
