<svg width="144" height="54" viewBox="0 0 144 54" fill="none" xmlns="http://www.w3.org/2000/svg">
<g filter="url(#filter0_dii_272_2319)">
<rect x="-0.11107" y="-0.110585" width="12.8515" height="13.1269" rx="1.10768" transform="matrix(0.999998 -0.0022149 0.00216777 0.999998 111.979 17.3999)" stroke="url(#paint0_linear_272_2319)" stroke-width="0.221661"/>
<rect width="9.65812" height="9.86872" transform="matrix(0.999998 -0.00223879 0.00214439 0.999998 113.473 18.9078)" fill="url(#paint1_linear_272_2319)"/>
<rect width="0.852063" height="0.170413" transform="matrix(0.999999 -0.00111936 0.00107223 0.999999 111.989 18.9242)" fill="#EC3678"/>
<rect width="0.852063" height="0.170413" transform="matrix(0.999999 -0.00111936 0.00107223 0.999999 111.989 19.265)" fill="#EC3678"/>
<rect width="0.852063" height="0.170413" transform="matrix(0.999999 -0.00111936 0.00107223 0.999999 111.99 19.6058)" fill="#EC3678"/>
<rect width="0.852063" height="0.170413" transform="matrix(0.999999 -0.00111936 0.00107223 0.999999 111.99 19.9468)" fill="#EC3678"/>
<rect width="0.852063" height="0.170413" transform="matrix(0.999999 -0.00111936 0.00107223 0.999999 111.99 20.2875)" fill="#EC3678"/>
<rect width="0.852063" height="0.170413" transform="matrix(0.999999 -0.00111936 0.00107223 0.999999 111.991 20.6284)" fill="#EC3678"/>
<rect width="0.852063" height="0.170413" transform="matrix(0.999999 -0.00111936 0.00107223 0.999999 111.991 20.9692)" fill="#EC3678"/>
<rect width="0.852063" height="0.170413" transform="matrix(0.999999 -0.00111936 0.00107223 0.999999 111.991 21.3101)" fill="#EC3678"/>
<rect width="0.852063" height="0.170413" transform="matrix(0.999999 -0.00111936 0.00107223 0.999999 111.992 21.6509)" fill="#EC3678"/>
<rect width="0.852063" height="0.170413" transform="matrix(0.999999 -0.00111936 0.00107223 0.999999 111.992 21.9917)" fill="#EC3678"/>
<rect width="0.852063" height="0.170413" transform="matrix(0.999999 -0.00111936 0.00107223 0.999999 111.992 22.3324)" fill="#EC3678"/>
<rect width="0.852063" height="0.170413" transform="matrix(0.999999 -0.00111936 0.00107223 0.999999 111.993 22.6732)" fill="#EC3678"/>
<rect width="0.852063" height="0.170413" transform="matrix(0.999999 -0.00111936 0.00107223 0.999999 111.993 23.0142)" fill="#EC3678"/>
<rect width="0.852063" height="0.170413" transform="matrix(0.999999 -0.00111936 0.00107223 0.999999 111.994 23.3549)" fill="#EC3678"/>
<rect width="0.852063" height="0.170413" transform="matrix(0.999999 -0.00111936 0.00107223 0.999999 111.994 23.6957)" fill="#EC3678"/>
<rect width="0.852063" height="0.170413" transform="matrix(0.999999 -0.00111936 0.00107223 0.999999 111.994 24.0366)" fill="#EC3678"/>
<rect width="0.852063" height="0.170413" transform="matrix(0.999999 -0.00111936 0.00107223 0.999999 111.995 24.3773)" fill="#EC3678"/>
<rect width="0.852063" height="0.170413" transform="matrix(0.999999 -0.00111936 0.00107223 0.999999 111.995 24.7183)" fill="#EC3678"/>
<rect width="0.852063" height="0.170413" transform="matrix(0.999999 -0.00111936 0.00107223 0.999999 111.996 25.0591)" fill="#EC3678"/>
<rect width="0.852063" height="0.170413" transform="matrix(-0.999995 0.00335821 0.00321655 0.999995 124.605 18.8956)" fill="#EC3678"/>
<rect width="0.852063" height="0.170413" transform="matrix(-0.999995 0.00335821 0.00321655 0.999995 124.606 19.2366)" fill="#EC3678"/>
<rect width="0.852063" height="0.170413" transform="matrix(-0.999995 0.00335821 0.00321655 0.999995 124.608 19.5774)" fill="#EC3678"/>
<rect width="0.852063" height="0.170413" transform="matrix(-0.999995 0.00335821 0.00321655 0.999995 124.609 19.9181)" fill="#EC3678"/>
<rect width="0.852063" height="0.170413" transform="matrix(-0.999995 0.00335821 0.00321655 0.999995 124.61 20.2589)" fill="#EC3678"/>
<rect width="0.852063" height="0.170413" transform="matrix(-0.999995 0.00335821 0.00321655 0.999995 124.611 20.5997)" fill="#EC3678"/>
<rect width="0.852063" height="0.170413" transform="matrix(-0.999995 0.00335821 0.00321655 0.999995 124.612 20.9408)" fill="#EC3678"/>
<rect width="0.852063" height="0.170413" transform="matrix(-0.999995 0.00335821 0.00321655 0.999995 124.613 21.2815)" fill="#EC3678"/>
<rect width="0.852063" height="0.170413" transform="matrix(-0.999995 0.00335821 0.00321655 0.999995 124.615 21.6223)" fill="#EC3678"/>
<rect width="0.852063" height="0.170413" transform="matrix(-0.999995 0.00335821 0.00321655 0.999995 124.615 21.9631)" fill="#EC3678"/>
<rect width="0.852063" height="0.170413" transform="matrix(-0.999995 0.00335821 0.00321655 0.999995 124.616 22.304)" fill="#EC3678"/>
<rect width="0.852063" height="0.170413" transform="matrix(-0.999995 0.00335821 0.00321655 0.999995 124.618 22.6448)" fill="#EC3678"/>
<rect width="0.852063" height="0.170413" transform="matrix(-0.999995 0.00335821 0.00321655 0.999995 124.619 22.9856)" fill="#EC3678"/>
<rect width="0.852063" height="0.170413" transform="matrix(-0.999995 0.00335821 0.00321655 0.999995 124.62 23.3264)" fill="#EC3678"/>
<rect width="0.852063" height="0.170413" transform="matrix(-0.999995 0.00335821 0.00321655 0.999995 124.621 23.6672)" fill="#EC3678"/>
<rect width="0.852063" height="0.170413" transform="matrix(-0.999995 0.00335821 0.00321655 0.999995 124.622 24.0081)" fill="#EC3678"/>
<rect width="0.852063" height="0.170413" transform="matrix(-0.999995 0.00335821 0.00321655 0.999995 124.623 24.3489)" fill="#EC3678"/>
<rect width="0.852063" height="0.170413" transform="matrix(-0.999995 0.00335821 0.00321655 0.999995 124.624 24.6896)" fill="#EC3678"/>
<rect width="0.852063" height="0.170413" transform="matrix(-0.999995 0.00335821 0.00321655 0.999995 124.625 25.0305)" fill="#EC3678"/>
<rect width="0.852063" height="0.170413" transform="matrix(-0.00107223 -0.999999 0.999999 -0.00111936 113.498 30.3079)" fill="#EC3678"/>
<rect width="0.852063" height="0.170413" transform="matrix(-0.00107223 -0.999999 0.999999 -0.00111936 113.838 30.3075)" fill="#EC3678"/>
<rect width="0.852063" height="0.170413" transform="matrix(-0.00107223 -0.999999 0.999999 -0.00111936 114.179 30.3071)" fill="#EC3678"/>
<rect width="0.852063" height="0.170413" transform="matrix(-0.00107223 -0.999999 0.999999 -0.00111936 114.52 30.3068)" fill="#EC3678"/>
<rect width="0.852063" height="0.170413" transform="matrix(-0.00107223 -0.999999 0.999999 -0.00111936 114.861 30.3063)" fill="#EC3678"/>
<rect width="0.852063" height="0.170413" transform="matrix(-0.00107223 -0.999999 0.999999 -0.00111936 115.202 30.3059)" fill="#EC3678"/>
<rect width="0.852063" height="0.170413" transform="matrix(-0.00107223 -0.999999 0.999999 -0.00111936 115.542 30.3055)" fill="#EC3678"/>
<rect width="0.852063" height="0.170413" transform="matrix(-0.00107223 -0.999999 0.999999 -0.00111936 115.883 30.3052)" fill="#EC3678"/>
<rect width="0.852063" height="0.170413" transform="matrix(-0.00107223 -0.999999 0.999999 -0.00111936 116.224 30.3048)" fill="#EC3678"/>
<rect width="0.852063" height="0.170413" transform="matrix(-0.00107223 -0.999999 0.999999 -0.00111936 116.565 30.3044)" fill="#EC3678"/>
<rect width="0.852063" height="0.170413" transform="matrix(-0.00107223 -0.999999 0.999999 -0.00111936 116.906 30.3041)" fill="#EC3678"/>
<rect width="0.852063" height="0.170413" transform="matrix(-0.00107223 -0.999999 0.999999 -0.00111936 117.247 30.3037)" fill="#EC3678"/>
<rect width="0.852063" height="0.170413" transform="matrix(-0.00107223 -0.999999 0.999999 -0.00111936 117.587 30.3032)" fill="#EC3678"/>
<rect width="0.852063" height="0.170413" transform="matrix(-0.00107223 -0.999999 0.999999 -0.00111936 117.928 30.3029)" fill="#EC3678"/>
<rect width="0.852063" height="0.170413" transform="matrix(-0.00107223 -0.999999 0.999999 -0.00111936 118.269 30.3025)" fill="#EC3678"/>
<rect width="0.852063" height="0.170413" transform="matrix(-0.00107223 -0.999999 0.999999 -0.00111936 118.61 30.3021)" fill="#EC3678"/>
<rect width="0.852063" height="0.170413" transform="matrix(-0.00107223 -0.999999 0.999999 -0.00111936 118.951 30.3018)" fill="#EC3678"/>
<rect width="0.852063" height="0.170413" transform="matrix(-0.00107223 -0.999999 0.999999 -0.00111936 119.292 30.3013)" fill="#EC3678"/>
<rect width="0.852063" height="0.170413" transform="matrix(-0.00107223 -0.999999 0.999999 -0.00111936 119.632 30.3009)" fill="#EC3678"/>
<rect width="0.852063" height="0.170413" transform="matrix(0.00324951 0.999995 0.999995 -0.00332432 113.47 17.4135)" fill="#EC3678"/>
<rect width="0.852063" height="0.170413" transform="matrix(0.00324951 0.999995 0.999995 -0.00332432 113.811 17.4124)" fill="#EC3678"/>
<rect width="0.852063" height="0.170413" transform="matrix(0.00324951 0.999995 0.999995 -0.00332432 114.152 17.4114)" fill="#EC3678"/>
<rect width="0.852063" height="0.170413" transform="matrix(0.00324951 0.999995 0.999995 -0.00332432 114.493 17.41)" fill="#EC3678"/>
<rect width="0.852063" height="0.170413" transform="matrix(0.00324951 0.999995 0.999995 -0.00332432 114.834 17.4089)" fill="#EC3678"/>
<rect width="0.852063" height="0.170413" transform="matrix(0.00324951 0.999995 0.999995 -0.00332432 115.174 17.4078)" fill="#EC3678"/>
<rect width="0.852063" height="0.170413" transform="matrix(0.00324951 0.999995 0.999995 -0.00332432 115.515 17.4066)" fill="#EC3678"/>
<rect width="0.852063" height="0.170413" transform="matrix(0.00324951 0.999995 0.999995 -0.00332432 115.856 17.4055)" fill="#EC3678"/>
<rect width="0.852063" height="0.170413" transform="matrix(0.00324951 0.999995 0.999995 -0.00332432 116.197 17.4044)" fill="#EC3678"/>
<rect width="0.852063" height="0.170413" transform="matrix(0.00324951 0.999995 0.999995 -0.00332432 116.538 17.4033)" fill="#EC3678"/>
<rect width="0.852063" height="0.170413" transform="matrix(0.00324951 0.999995 0.999995 -0.00332432 116.879 17.4022)" fill="#EC3678"/>
<rect width="0.852063" height="0.170413" transform="matrix(0.00324951 0.999995 0.999995 -0.00332432 117.219 17.401)" fill="#EC3678"/>
<rect width="0.852063" height="0.170413" transform="matrix(0.00324951 0.999995 0.999995 -0.00332432 117.56 17.3999)" fill="#EC3678"/>
<rect width="0.852063" height="0.170413" transform="matrix(0.00324951 0.999995 0.999995 -0.00332432 117.901 17.3987)" fill="#EC3678"/>
<rect width="0.852063" height="0.170413" transform="matrix(0.00324951 0.999995 0.999995 -0.00332432 118.242 17.3976)" fill="#EC3678"/>
<rect width="0.852063" height="0.170413" transform="matrix(0.00324951 0.999995 0.999995 -0.00332432 118.583 17.3965)" fill="#EC3678"/>
<rect width="0.852063" height="0.170413" transform="matrix(0.00324951 0.999995 0.999995 -0.00332432 118.924 17.3953)" fill="#EC3678"/>
<rect width="0.852063" height="0.170413" transform="matrix(0.00324951 0.999995 0.999995 -0.00332432 119.264 17.3942)" fill="#EC3678"/>
<rect width="0.852063" height="0.170413" transform="matrix(0.00324951 0.999995 0.999995 -0.00332432 119.605 17.3931)" fill="#EC3678"/>
</g>
<g filter="url(#filter1_dii_272_2319)">
<path d="M121.27 9.01517C128.604 9.00695 134.669 15.4262 134.678 23.4432C134.686 31.3776 128.559 37.8931 121.301 37.9012L115.349 37.9079C108.092 37.9161 101.951 31.4143 101.942 23.4799C101.934 15.4629 107.985 9.03007 115.318 9.02185L118.294 9.01851L121.27 9.01517ZM121.296 32.5801C125.68 32.5752 129.475 28.2427 129.47 23.449C129.464 18.5727 125.737 15.0914 121.277 15.0964L115.325 15.1031C110.865 15.1081 107.145 18.5977 107.15 23.4741C107.155 28.2677 110.959 32.5917 115.344 32.5868L121.296 32.5801Z" fill="url(#paint2_linear_272_2319)"/>
</g>
<path d="M24.3855 9.12347L29.8803 9.11735L29.9114 38.0034L24.4166 38.0095C24.4135 35.0838 23.2072 32.2831 21.1195 30.3075L5.50173 15.614L5.52588 38.0306L0.0311246 38.0367L0 9.15063L6.81831 9.14304L24.4034 25.7299L24.3855 9.12347Z" fill="white"/>
<path d="M41.1849 14.8325C39.8613 14.834 38.7395 15.9478 38.741 17.3489C38.7425 18.7087 39.8668 19.8613 41.1903 19.8598L56.7521 19.8424L56.7582 25.4878L41.1964 25.5051C39.8728 25.5066 38.7515 27.0325 38.7534 28.8456C38.7553 30.6175 39.88 32.1409 41.2036 32.1394L62.0997 32.1162L62.1058 37.8027L41.2097 37.826C36.8379 37.8309 33.264 33.7966 33.2587 28.8517C33.2562 26.5441 34.0159 24.4005 35.2977 22.8332C34.0126 21.3512 33.2485 19.4566 33.2463 17.355C33.2414 12.8222 36.807 9.15084 41.1788 9.14597L66.9279 9.11729L66.9341 14.8038L41.1849 14.8325Z" fill="white"/>
<path d="M95.5852 29.6889L99.7252 37.9257L93.5085 37.9326L90.6948 32.2904C90.1321 31.1784 89.2091 30.6437 85.7197 30.6476L76.535 30.6578L76.5289 24.9713L89.2431 24.9571C90.8073 24.9554 92.2501 23.9648 92.7699 22.4808C93.4897 20.5432 93.6873 17.7822 92.6026 16.1763C92.4017 15.8469 91.6787 14.7763 89.2321 14.779L74.5928 14.7953L74.6177 37.9536L69.123 37.9597L69.0919 9.11488L89.226 9.09245C93.6378 9.08754 95.9663 11.1865 97.1715 12.9571C99.5818 16.5394 99.1058 21.4435 97.9459 24.4942C97.3461 26.1431 96.2647 27.5453 94.9824 28.6182C95.1833 28.9476 95.4244 29.3182 95.5852 29.6889Z" fill="white"/>
<path d="M3.66953 48.1102C3.6698 48.3575 3.59905 48.5775 3.45727 48.77C3.32007 48.9625 3.11871 49.1139 2.85319 49.2241C2.59224 49.3343 2.2694 49.3896 1.88467 49.39C1.56864 49.3904 1.25716 49.3518 0.950205 49.2743C0.647834 49.1968 0.402688 49.094 0.214765 48.966L0.591758 48.1617C0.77051 48.2806 0.979006 48.3743 1.21724 48.4427C1.45548 48.5111 1.69827 48.5452 1.94559 48.5449C2.18834 48.5447 2.35776 48.5101 2.45387 48.4413C2.54998 48.3725 2.59799 48.2923 2.59789 48.2007C2.59779 48.1091 2.5542 48.0359 2.46712 47.981C2.38462 47.9261 2.27465 47.8828 2.13721 47.8508C2.00435 47.8144 1.85546 47.7802 1.69054 47.7483C1.5302 47.7164 1.36756 47.6754 1.20262 47.6252C1.04227 47.575 0.893341 47.5087 0.755849 47.4264C0.622932 47.3396 0.512889 47.2275 0.425719 47.0902C0.343124 46.9483 0.301713 46.772 0.301486 46.5613C0.30122 46.314 0.371977 46.0963 0.513758 45.9084C0.660114 45.7159 0.866056 45.5645 1.13158 45.4543C1.39711 45.3441 1.71308 45.2887 2.07949 45.2883C2.32681 45.2881 2.57875 45.3153 2.83529 45.3699C3.09184 45.4246 3.31636 45.5114 3.50885 45.6303L3.15934 46.4345C2.98059 46.3247 2.79502 46.2471 2.6026 46.2015C2.41477 46.1559 2.22696 46.1332 2.03918 46.1334C1.81017 46.1337 1.64303 46.1682 1.53777 46.237C1.4325 46.3058 1.37992 46.3929 1.38003 46.4983C1.38013 46.5899 1.42143 46.6631 1.50393 46.718C1.58643 46.7728 1.69412 46.8185 1.82698 46.855C1.96442 46.8869 2.11559 46.9188 2.28051 46.9507C2.44543 46.9826 2.60807 47.0236 2.76843 47.0738C2.92878 47.1194 3.0777 47.1834 3.21519 47.2657C3.35269 47.348 3.46273 47.4578 3.54532 47.5951C3.6279 47.7278 3.66931 47.8995 3.66953 48.1102ZM4.35634 49.3117L4.35209 45.3614L5.25895 45.3604L6.89691 48.0173L6.45722 48.0178L8.0551 45.3573L8.96883 45.3562L8.98683 49.3066L7.97004 49.3077L7.96058 46.9031L8.11173 46.903L6.90472 48.8898L6.41694 48.8903L5.16443 46.9063L5.36366 46.906L5.36625 49.3106L4.35634 49.3117ZM9.44815 49.306L11.2164 45.3537L12.2881 45.3525L14.0718 49.3009L13 49.3021L11.5742 45.8755L11.9383 45.8751L10.4993 49.3049L9.44815 49.306ZM10.416 48.5218L10.6968 47.7383L12.6479 47.7361L12.9305 48.519L10.416 48.5218ZM14.5408 49.3004L14.5366 45.35L16.3365 45.348C16.7029 45.3476 17.0167 45.4068 17.2779 45.5256C17.5437 45.6398 17.75 45.8045 17.8968 46.0196C18.0436 46.2347 18.1171 46.4957 18.1175 46.8025C18.1178 47.1002 18.0448 47.3568 17.8985 47.5722C17.7521 47.7877 17.5462 47.9528 17.2807 48.0676C17.0197 48.1824 16.7061 48.24 16.3396 48.2404L15.1374 48.2417L15.6247 47.7809L15.6263 49.2992L14.5408 49.3004ZM17.0278 49.2976L16.0301 47.8629L17.1843 47.8616L18.1957 49.2963L17.0278 49.2976ZM15.6248 47.9045L15.2258 47.4172L16.2632 47.416C16.5151 47.4158 16.7051 47.3629 16.8332 47.2574C16.9614 47.1473 17.0253 46.9961 17.0251 46.8037C17.0249 46.6068 16.9606 46.4557 16.8323 46.3505C16.7039 46.2453 16.5138 46.1929 16.2619 46.1931L15.2245 46.1943L15.6224 45.7061L15.6248 47.9045ZM19.637 49.2947L19.6337 46.1894L18.3902 46.1908L18.3893 45.3457L21.9617 45.3418L21.9626 46.1868L20.7191 46.1882L20.7225 49.2935L19.637 49.2947ZM24.4703 49.2893L24.4661 45.339L25.5516 45.3378L25.5549 48.4431L27.4854 48.4409L27.4863 49.286L24.4703 49.2893ZM28.0731 49.2853L28.0689 45.335L29.1544 45.3338L29.1586 49.2841L28.0731 49.2853ZM32.1372 49.3563C31.7113 49.3568 31.331 49.2702 30.9965 49.0966C30.662 48.9183 30.3983 48.6736 30.2056 48.3623C30.0129 48.0511 29.9164 47.6985 29.916 47.3046C29.9155 46.9108 30.0113 46.5603 30.2034 46.2532C30.3954 45.9461 30.6585 45.7031 30.9927 45.5241C31.3268 45.3451 31.7069 45.2553 32.1328 45.2549C32.5588 45.2544 32.939 45.3433 33.2735 45.5215C33.6081 45.6998 33.8717 45.9422 34.0644 46.2489C34.2571 46.5555 34.3537 46.9058 34.3541 47.2997C34.3545 47.6936 34.2587 48.0464 34.0667 48.358C33.8746 48.6697 33.6115 48.915 33.2774 49.094C32.9432 49.2684 32.5632 49.3559 32.1372 49.3563ZM33.4641 50.2205C33.2351 50.2208 33.0244 50.1889 32.8319 50.125C32.6441 50.0657 32.4516 49.9583 32.2545 49.8028C32.062 49.6518 31.8419 49.446 31.5943 49.1852L32.7345 48.9091C32.8354 49.0464 32.9225 49.1539 32.9959 49.2317C33.0738 49.3095 33.1517 49.3644 33.2296 49.3963C33.3075 49.4283 33.3923 49.4443 33.4839 49.4442C33.7037 49.4439 33.9029 49.3544 34.0813 49.1756L34.5697 49.7452C34.437 49.9057 34.2769 50.0249 34.0892 50.103C33.9015 50.1811 33.6931 50.2203 33.4641 50.2205ZM32.1363 48.4701C32.3561 48.4699 32.5484 48.4215 32.7132 48.3252C32.8826 48.2242 33.0152 48.0844 33.1112 47.9057C33.2072 47.7269 33.2551 47.5253 33.2549 47.3009C33.2546 47.0765 33.2063 46.8773 33.1099 46.7034C33.0136 46.5294 32.8806 46.3922 32.711 46.2916C32.546 46.191 32.3536 46.1409 32.1338 46.1411C31.9185 46.1414 31.7262 46.1919 31.5568 46.2929C31.3875 46.3939 31.2525 46.5314 31.1519 46.7056C31.0559 46.8797 31.0081 47.079 31.0083 47.3034C31.0086 47.5278 31.0569 47.7293 31.1532 47.9078C31.2542 48.0863 31.3895 48.2259 31.559 48.3265C31.7286 48.4225 31.921 48.4703 32.1363 48.4701ZM36.952 49.351C36.5627 49.3514 36.2282 49.2808 35.9487 49.1391C35.6692 48.9975 35.4537 48.7939 35.3022 48.5284C35.1554 48.2583 35.0818 47.9401 35.0814 47.5737L35.079 45.3272L36.1644 45.3259L36.1668 47.5381C36.1672 47.845 36.2361 48.0762 36.3737 48.2318C36.5112 48.3874 36.7083 48.465 36.9648 48.4647C37.2212 48.4644 37.4158 48.3864 37.5485 48.2305C37.6811 48.0746 37.7473 47.8432 37.747 47.5364L37.7446 45.3242L38.8163 45.323L38.8187 47.5695C38.8191 47.9359 38.7462 48.2543 38.5999 48.5247C38.4536 48.7905 38.2409 48.9946 37.9617 49.1369C37.6824 49.2792 37.3459 49.3505 36.952 49.351ZM39.8342 49.2722L39.83 45.3219L40.9155 45.3207L40.9197 49.271L39.8342 49.2722ZM41.9677 49.2698L41.9635 45.3195L43.8253 45.3174C44.2787 45.3169 44.6727 45.3966 45.0072 45.5566C45.3463 45.7165 45.6076 45.9452 45.7912 46.2427C45.9793 46.5356 46.0735 46.8859 46.074 47.2935C46.0744 47.6966 45.9809 48.047 45.7934 48.345C45.6105 48.6383 45.3497 48.8653 45.011 49.026C44.6768 49.1867 44.283 49.2672 43.8296 49.2677L41.9677 49.2698ZM43.0523 48.4167L43.7943 48.4159C44.037 48.4156 44.2454 48.3719 44.4193 48.2847C44.5979 48.1974 44.7351 48.0713 44.8311 47.9063C44.9271 47.7368 44.975 47.5329 44.9748 47.2947C44.9745 47.052 44.9262 46.8482 44.8298 46.6835C44.7335 46.5141 44.5959 46.386 44.4172 46.2992C44.2431 46.2124 44.0346 46.1691 43.7919 46.1693L43.0499 46.1702L43.0523 48.4167Z" fill="white"/>
<defs>
<filter id="filter0_dii_272_2319" x="103.014" y="8.40804" width="30.586" height="30.8614" filterUnits="userSpaceOnUse" color-interpolation-filters="sRGB">
<feFlood flood-opacity="0" result="BackgroundImageFix"/>
<feColorMatrix in="SourceAlpha" type="matrix" values="0 0 0 0 0 0 0 0 0 0 0 0 0 0 0 0 0 0 127 0" result="hardAlpha"/>
<feOffset/>
<feGaussianBlur stdDeviation="4.37233"/>
<feComposite in2="hardAlpha" operator="out"/>
<feColorMatrix type="matrix" values="0 0 0 0 0 0 0 0 0 0 0 0 0 0 0 0 0 0 0.25 0"/>
<feBlend mode="normal" in2="BackgroundImageFix" result="effect1_dropShadow_272_2319"/>
<feBlend mode="normal" in="SourceGraphic" in2="effect1_dropShadow_272_2319" result="shape"/>
<feColorMatrix in="SourceAlpha" type="matrix" values="0 0 0 0 0 0 0 0 0 0 0 0 0 0 0 0 0 0 127 0" result="hardAlpha"/>
<feOffset dy="0.699573"/>
<feGaussianBlur stdDeviation="1.3117"/>
<feComposite in2="hardAlpha" operator="arithmetic" k2="-1" k3="1"/>
<feColorMatrix type="matrix" values="0 0 0 0 1 0 0 0 0 1 0 0 0 0 1 0 0 0 0.4 0"/>
<feBlend mode="normal" in2="shape" result="effect2_innerShadow_272_2319"/>
<feColorMatrix in="SourceAlpha" type="matrix" values="0 0 0 0 0 0 0 0 0 0 0 0 0 0 0 0 0 0 127 0" result="hardAlpha"/>
<feOffset dy="-1.04936"/>
<feGaussianBlur stdDeviation="1.22425"/>
<feComposite in2="hardAlpha" operator="arithmetic" k2="-1" k3="1"/>
<feColorMatrix type="matrix" values="0 0 0 0 0 0 0 0 0 0 0 0 0 0 0 0 0 0 0.25 0"/>
<feBlend mode="normal" in2="effect2_innerShadow_272_2319" result="effect3_innerShadow_272_2319"/>
</filter>
<filter id="filter1_dii_272_2319" x="93.1975" y="0.27047" width="50.2247" height="46.3822" filterUnits="userSpaceOnUse" color-interpolation-filters="sRGB">
<feFlood flood-opacity="0" result="BackgroundImageFix"/>
<feColorMatrix in="SourceAlpha" type="matrix" values="0 0 0 0 0 0 0 0 0 0 0 0 0 0 0 0 0 0 127 0" result="hardAlpha"/>
<feOffset/>
<feGaussianBlur stdDeviation="4.37233"/>
<feComposite in2="hardAlpha" operator="out"/>
<feColorMatrix type="matrix" values="0 0 0 0 0 0 0 0 0 0 0 0 0 0 0 0 0 0 0.25 0"/>
<feBlend mode="normal" in2="BackgroundImageFix" result="effect1_dropShadow_272_2319"/>
<feBlend mode="normal" in="SourceGraphic" in2="effect1_dropShadow_272_2319" result="shape"/>
<feColorMatrix in="SourceAlpha" type="matrix" values="0 0 0 0 0 0 0 0 0 0 0 0 0 0 0 0 0 0 127 0" result="hardAlpha"/>
<feOffset dy="0.699573"/>
<feGaussianBlur stdDeviation="1.3117"/>
<feComposite in2="hardAlpha" operator="arithmetic" k2="-1" k3="1"/>
<feColorMatrix type="matrix" values="0 0 0 0 1 0 0 0 0 1 0 0 0 0 1 0 0 0 0.4 0"/>
<feBlend mode="normal" in2="shape" result="effect2_innerShadow_272_2319"/>
<feColorMatrix in="SourceAlpha" type="matrix" values="0 0 0 0 0 0 0 0 0 0 0 0 0 0 0 0 0 0 127 0" result="hardAlpha"/>
<feOffset dy="-1.04936"/>
<feGaussianBlur stdDeviation="1.22425"/>
<feComposite in2="hardAlpha" operator="arithmetic" k2="-1" k3="1"/>
<feColorMatrix type="matrix" values="0 0 0 0 0 0 0 0 0 0 0 0 0 0 0 0 0 0 0.25 0"/>
<feBlend mode="normal" in2="effect2_innerShadow_272_2319" result="effect3_innerShadow_272_2319"/>
</filter>
<linearGradient id="paint0_linear_272_2319" x1="6.31492" y1="0" x2="6.31492" y2="12.9053" gradientUnits="userSpaceOnUse">
<stop stop-color="#F24572"/>
<stop offset="0.9375" stop-color="#E41882"/>
</linearGradient>
<linearGradient id="paint1_linear_272_2319" x1="9.65808" y1="9.79442" x2="-1.47718" y2="2.00752" gradientUnits="userSpaceOnUse">
<stop stop-color="#EC008C"/>
<stop offset="1" stop-color="#FC6767"/>
</linearGradient>
<linearGradient id="paint2_linear_272_2319" x1="101.927" y1="9.03655" x2="135.756" y2="36.581" gradientUnits="userSpaceOnUse">
<stop offset="0.00553601" stop-color="#FF512F"/>
<stop offset="1" stop-color="#DD2476"/>
</linearGradient>
</defs>
</svg>
