<svg width="144" height="54" viewBox="0 0 144 54" fill="none" xmlns="http://www.w3.org/2000/svg">
<g filter="url(#filter0_dii_905_459)">
<rect x="-0.11107" y="-0.110585" width="12.8515" height="13.1269" rx="1.10768" transform="matrix(0.999998 -0.0022149 0.00216777 0.999998 111.979 17.3999)" stroke="url(#paint0_linear_905_459)" stroke-width="0.221661"/>
<rect width="9.65812" height="9.86872" transform="matrix(0.999998 -0.00223879 0.00214439 0.999998 113.473 18.9077)" fill="url(#paint1_linear_905_459)"/>
<rect width="0.852063" height="0.170413" transform="matrix(0.999999 -0.00111936 0.00107223 0.999999 111.989 18.9241)" fill="#EC3678"/>
<rect width="0.852063" height="0.170413" transform="matrix(0.999999 -0.00111936 0.00107223 0.999999 111.989 19.2649)" fill="#EC3678"/>
<rect width="0.852063" height="0.170413" transform="matrix(0.999999 -0.00111936 0.00107223 0.999999 111.99 19.6057)" fill="#EC3678"/>
<rect width="0.852063" height="0.170413" transform="matrix(0.999999 -0.00111936 0.00107223 0.999999 111.99 19.9465)" fill="#EC3678"/>
<rect width="0.852063" height="0.170413" transform="matrix(0.999999 -0.00111936 0.00107223 0.999999 111.99 20.2874)" fill="#EC3678"/>
<rect width="0.852063" height="0.170413" transform="matrix(0.999999 -0.00111936 0.00107223 0.999999 111.991 20.6282)" fill="#EC3678"/>
<rect width="0.852063" height="0.170413" transform="matrix(0.999999 -0.00111936 0.00107223 0.999999 111.991 20.969)" fill="#EC3678"/>
<rect width="0.852063" height="0.170413" transform="matrix(0.999999 -0.00111936 0.00107223 0.999999 111.991 21.3098)" fill="#EC3678"/>
<rect width="0.852063" height="0.170413" transform="matrix(0.999999 -0.00111936 0.00107223 0.999999 111.992 21.6506)" fill="#EC3678"/>
<rect width="0.852063" height="0.170413" transform="matrix(0.999999 -0.00111936 0.00107223 0.999999 111.992 21.9915)" fill="#EC3678"/>
<rect width="0.852063" height="0.170413" transform="matrix(0.999999 -0.00111936 0.00107223 0.999999 111.992 22.3323)" fill="#EC3678"/>
<rect width="0.852063" height="0.170413" transform="matrix(0.999999 -0.00111936 0.00107223 0.999999 111.993 22.6731)" fill="#EC3678"/>
<rect width="0.852063" height="0.170413" transform="matrix(0.999999 -0.00111936 0.00107223 0.999999 111.993 23.0139)" fill="#EC3678"/>
<rect width="0.852063" height="0.170413" transform="matrix(0.999999 -0.00111936 0.00107223 0.999999 111.994 23.3547)" fill="#EC3678"/>
<rect width="0.852063" height="0.170413" transform="matrix(0.999999 -0.00111936 0.00107223 0.999999 111.994 23.6956)" fill="#EC3678"/>
<rect width="0.852063" height="0.170413" transform="matrix(0.999999 -0.00111936 0.00107223 0.999999 111.994 24.0364)" fill="#EC3678"/>
<rect width="0.852063" height="0.170413" transform="matrix(0.999999 -0.00111936 0.00107223 0.999999 111.995 24.3772)" fill="#EC3678"/>
<rect width="0.852063" height="0.170413" transform="matrix(0.999999 -0.00111936 0.00107223 0.999999 111.995 24.718)" fill="#EC3678"/>
<rect width="0.852063" height="0.170413" transform="matrix(0.999999 -0.00111936 0.00107223 0.999999 111.996 25.0591)" fill="#EC3678"/>
<rect width="0.852063" height="0.170413" transform="matrix(-0.999995 0.00335821 0.00321655 0.999995 124.605 18.8955)" fill="#EC3678"/>
<rect width="0.852063" height="0.170413" transform="matrix(-0.999995 0.00335821 0.00321655 0.999995 124.606 19.2366)" fill="#EC3678"/>
<rect width="0.852063" height="0.170413" transform="matrix(-0.999995 0.00335821 0.00321655 0.999995 124.608 19.5774)" fill="#EC3678"/>
<rect width="0.852063" height="0.170413" transform="matrix(-0.999995 0.00335821 0.00321655 0.999995 124.609 19.918)" fill="#EC3678"/>
<rect width="0.852063" height="0.170413" transform="matrix(-0.999995 0.00335821 0.00321655 0.999995 124.61 20.2588)" fill="#EC3678"/>
<rect width="0.852063" height="0.170413" transform="matrix(-0.999995 0.00335821 0.00321655 0.999995 124.611 20.5996)" fill="#EC3678"/>
<rect width="0.852063" height="0.170413" transform="matrix(-0.999995 0.00335821 0.00321655 0.999995 124.612 20.9407)" fill="#EC3678"/>
<rect width="0.852063" height="0.170413" transform="matrix(-0.999995 0.00335821 0.00321655 0.999995 124.613 21.2815)" fill="#EC3678"/>
<rect width="0.852063" height="0.170413" transform="matrix(-0.999995 0.00335821 0.00321655 0.999995 124.615 21.6221)" fill="#EC3678"/>
<rect width="0.852063" height="0.170413" transform="matrix(-0.999995 0.00335821 0.00321655 0.999995 124.615 21.9629)" fill="#EC3678"/>
<rect width="0.852063" height="0.170413" transform="matrix(-0.999995 0.00335821 0.00321655 0.999995 124.616 22.3037)" fill="#EC3678"/>
<rect width="0.852063" height="0.170413" transform="matrix(-0.999995 0.00335821 0.00321655 0.999995 124.618 22.6445)" fill="#EC3678"/>
<rect width="0.852063" height="0.170413" transform="matrix(-0.999995 0.00335821 0.00321655 0.999995 124.619 22.9854)" fill="#EC3678"/>
<rect width="0.852063" height="0.170413" transform="matrix(-0.999995 0.00335821 0.00321655 0.999995 124.62 23.3262)" fill="#EC3678"/>
<rect width="0.852063" height="0.170413" transform="matrix(-0.999995 0.00335821 0.00321655 0.999995 124.621 23.667)" fill="#EC3678"/>
<rect width="0.852063" height="0.170413" transform="matrix(-0.999995 0.00335821 0.00321655 0.999995 124.622 24.0078)" fill="#EC3678"/>
<rect width="0.852063" height="0.170413" transform="matrix(-0.999995 0.00335821 0.00321655 0.999995 124.623 24.3486)" fill="#EC3678"/>
<rect width="0.852063" height="0.170413" transform="matrix(-0.999995 0.00335821 0.00321655 0.999995 124.624 24.6895)" fill="#EC3678"/>
<rect width="0.852063" height="0.170413" transform="matrix(-0.999995 0.00335821 0.00321655 0.999995 124.625 25.0303)" fill="#EC3678"/>
<rect width="0.852063" height="0.170413" transform="matrix(-0.00107223 -0.999999 0.999999 -0.00111936 113.498 30.3076)" fill="#EC3678"/>
<rect width="0.852063" height="0.170413" transform="matrix(-0.00107223 -0.999999 0.999999 -0.00111936 113.838 30.3071)" fill="#EC3678"/>
<rect width="0.852063" height="0.170413" transform="matrix(-0.00107223 -0.999999 0.999999 -0.00111936 114.179 30.3069)" fill="#EC3678"/>
<rect width="0.852063" height="0.170413" transform="matrix(-0.00107223 -0.999999 0.999999 -0.00111936 114.52 30.3064)" fill="#EC3678"/>
<rect width="0.852063" height="0.170413" transform="matrix(-0.00107223 -0.999999 0.999999 -0.00111936 114.861 30.3062)" fill="#EC3678"/>
<rect width="0.852063" height="0.170413" transform="matrix(-0.00107223 -0.999999 0.999999 -0.00111936 115.202 30.3057)" fill="#EC3678"/>
<rect width="0.852063" height="0.170413" transform="matrix(-0.00107223 -0.999999 0.999999 -0.00111936 115.542 30.3054)" fill="#EC3678"/>
<rect width="0.852063" height="0.170413" transform="matrix(-0.00107223 -0.999999 0.999999 -0.00111936 115.883 30.3049)" fill="#EC3678"/>
<rect width="0.852063" height="0.170413" transform="matrix(-0.00107223 -0.999999 0.999999 -0.00111936 116.224 30.3047)" fill="#EC3678"/>
<rect width="0.852063" height="0.170413" transform="matrix(-0.00107223 -0.999999 0.999999 -0.00111936 116.565 30.3042)" fill="#EC3678"/>
<rect width="0.852063" height="0.170413" transform="matrix(-0.00107223 -0.999999 0.999999 -0.00111936 116.906 30.304)" fill="#EC3678"/>
<rect width="0.852063" height="0.170413" transform="matrix(-0.00107223 -0.999999 0.999999 -0.00111936 117.247 30.3035)" fill="#EC3678"/>
<rect width="0.852063" height="0.170413" transform="matrix(-0.00107223 -0.999999 0.999999 -0.00111936 117.587 30.303)" fill="#EC3678"/>
<rect width="0.852063" height="0.170413" transform="matrix(-0.00107223 -0.999999 0.999999 -0.00111936 117.928 30.3027)" fill="#EC3678"/>
<rect width="0.852063" height="0.170413" transform="matrix(-0.00107223 -0.999999 0.999999 -0.00111936 118.269 30.3022)" fill="#EC3678"/>
<rect width="0.852063" height="0.170413" transform="matrix(-0.00107223 -0.999999 0.999999 -0.00111936 118.61 30.302)" fill="#EC3678"/>
<rect width="0.852063" height="0.170413" transform="matrix(-0.00107223 -0.999999 0.999999 -0.00111936 118.951 30.3015)" fill="#EC3678"/>
<rect width="0.852063" height="0.170413" transform="matrix(-0.00107223 -0.999999 0.999999 -0.00111936 119.292 30.301)" fill="#EC3678"/>
<rect width="0.852063" height="0.170413" transform="matrix(-0.00107223 -0.999999 0.999999 -0.00111936 119.632 30.3008)" fill="#EC3678"/>
<rect width="0.852063" height="0.170413" transform="matrix(0.00324951 0.999995 0.999995 -0.00332432 113.47 17.4131)" fill="#EC3678"/>
<rect width="0.852063" height="0.170413" transform="matrix(0.00324951 0.999995 0.999995 -0.00332432 113.811 17.4121)" fill="#EC3678"/>
<rect width="0.852063" height="0.170413" transform="matrix(0.00324951 0.999995 0.999995 -0.00332432 114.152 17.4109)" fill="#EC3678"/>
<rect width="0.852063" height="0.170413" transform="matrix(0.00324951 0.999995 0.999995 -0.00332432 114.493 17.4097)" fill="#EC3678"/>
<rect width="0.852063" height="0.170413" transform="matrix(0.00324951 0.999995 0.999995 -0.00332432 114.834 17.4084)" fill="#EC3678"/>
<rect width="0.852063" height="0.170413" transform="matrix(0.00324951 0.999995 0.999995 -0.00332432 115.174 17.4075)" fill="#EC3678"/>
<rect width="0.852063" height="0.170413" transform="matrix(0.00324951 0.999995 0.999995 -0.00332432 115.515 17.4062)" fill="#EC3678"/>
<rect width="0.852063" height="0.170413" transform="matrix(0.00324951 0.999995 0.999995 -0.00332432 115.856 17.4053)" fill="#EC3678"/>
<rect width="0.852063" height="0.170413" transform="matrix(0.00324951 0.999995 0.999995 -0.00332432 116.197 17.4041)" fill="#EC3678"/>
<rect width="0.852063" height="0.170413" transform="matrix(0.00324951 0.999995 0.999995 -0.00332432 116.538 17.4028)" fill="#EC3678"/>
<rect width="0.852063" height="0.170413" transform="matrix(0.00324951 0.999995 0.999995 -0.00332432 116.879 17.4019)" fill="#EC3678"/>
<rect width="0.852063" height="0.170413" transform="matrix(0.00324951 0.999995 0.999995 -0.00332432 117.219 17.4006)" fill="#EC3678"/>
<rect width="0.852063" height="0.170413" transform="matrix(0.00324951 0.999995 0.999995 -0.00332432 117.56 17.3994)" fill="#EC3678"/>
<rect width="0.852063" height="0.170413" transform="matrix(0.00324951 0.999995 0.999995 -0.00332432 117.901 17.3984)" fill="#EC3678"/>
<rect width="0.852063" height="0.170413" transform="matrix(0.00324951 0.999995 0.999995 -0.00332432 118.242 17.3972)" fill="#EC3678"/>
<rect width="0.852063" height="0.170413" transform="matrix(0.00324951 0.999995 0.999995 -0.00332432 118.583 17.396)" fill="#EC3678"/>
<rect width="0.852063" height="0.170413" transform="matrix(0.00324951 0.999995 0.999995 -0.00332432 118.924 17.395)" fill="#EC3678"/>
<rect width="0.852063" height="0.170413" transform="matrix(0.00324951 0.999995 0.999995 -0.00332432 119.264 17.3938)" fill="#EC3678"/>
<rect width="0.852063" height="0.170413" transform="matrix(0.00324951 0.999995 0.999995 -0.00332432 119.605 17.3928)" fill="#EC3678"/>
</g>
<g filter="url(#filter1_dii_905_459)">
<path d="M121.27 9.01517C128.604 9.00695 134.669 15.4262 134.678 23.4432C134.686 31.3776 128.559 37.8931 121.301 37.9012L115.349 37.9079C108.092 37.9161 101.951 31.4143 101.942 23.4799C101.934 15.4629 107.985 9.03007 115.318 9.02185L118.294 9.01851L121.27 9.01517ZM121.296 32.5801C125.68 32.5752 129.475 28.2427 129.47 23.449C129.464 18.5727 125.737 15.0914 121.277 15.0964L115.325 15.1031C110.865 15.1081 107.145 18.5977 107.15 23.4741C107.155 28.2677 110.959 32.5917 115.344 32.5868L121.296 32.5801Z" fill="url(#paint2_linear_905_459)"/>
</g>
<path d="M24.3855 9.12347L29.8803 9.11735L29.9114 38.0034L24.4166 38.0095C24.4135 35.0838 23.2072 32.2831 21.1195 30.3075L5.50173 15.614L5.52588 38.0306L0.0311246 38.0367L0 9.15063L6.81831 9.14304L24.4034 25.7299L24.3855 9.12347Z" fill="white"/>
<path d="M41.1849 14.8325C39.8613 14.834 38.7395 15.9478 38.741 17.3489C38.7425 18.7087 39.8668 19.8613 41.1903 19.8598L56.7521 19.8424L56.7582 25.4878L41.1964 25.5051C39.8728 25.5066 38.7515 27.0325 38.7534 28.8456C38.7553 30.6175 39.88 32.1409 41.2036 32.1394L62.0997 32.1162L62.1058 37.8027L41.2097 37.826C36.8379 37.8309 33.264 33.7966 33.2587 28.8517C33.2562 26.5441 34.0159 24.4005 35.2977 22.8332C34.0126 21.3512 33.2485 19.4566 33.2463 17.355C33.2414 12.8222 36.807 9.15084 41.1788 9.14597L66.9279 9.11729L66.9341 14.8038L41.1849 14.8325Z" fill="white"/>
<path d="M95.5852 29.6889L99.7252 37.9257L93.5085 37.9326L90.6948 32.2904C90.1321 31.1784 89.2091 30.6437 85.7197 30.6476L76.535 30.6578L76.5289 24.9713L89.2431 24.9571C90.8073 24.9554 92.2501 23.9648 92.7699 22.4808C93.4897 20.5432 93.6873 17.7822 92.6026 16.1763C92.4017 15.8469 91.6787 14.7763 89.2321 14.779L74.5928 14.7953L74.6177 37.9536L69.123 37.9597L69.0919 9.11488L89.226 9.09245C93.6378 9.08754 95.9663 11.1865 97.1715 12.9571C99.5818 16.5394 99.1058 21.4435 97.9459 24.4942C97.3461 26.1431 96.2647 27.5453 94.9824 28.6182C95.1833 28.9476 95.4244 29.3182 95.5852 29.6889Z" fill="white"/>
<path d="M3.66953 48.1101C3.6698 48.3574 3.59905 48.5773 3.45727 48.7699C3.32007 48.9624 3.11871 49.1137 2.85319 49.224C2.59224 49.3342 2.2694 49.3895 1.88467 49.3899C1.56864 49.3903 1.25716 49.3517 0.950205 49.2742C0.647834 49.1966 0.402688 49.0939 0.214765 48.9658L0.591758 48.1616C0.77051 48.2805 0.979006 48.3741 1.21724 48.4426C1.45548 48.511 1.69827 48.5451 1.94559 48.5448C2.18834 48.5446 2.35776 48.51 2.45387 48.4412C2.54998 48.3724 2.59799 48.2922 2.59789 48.2006C2.59779 48.109 2.5542 48.0358 2.46712 47.9809C2.38462 47.926 2.27465 47.8826 2.13721 47.8507C2.00435 47.8142 1.85546 47.78 1.69054 47.7482C1.5302 47.7163 1.36756 47.6752 1.20262 47.625C1.04227 47.5748 0.893341 47.5086 0.755849 47.4263C0.622932 47.3394 0.512889 47.2273 0.425719 47.09C0.343124 46.9482 0.301713 46.7719 0.301486 46.5612C0.30122 46.3139 0.371977 46.0962 0.513758 45.9083C0.660114 45.7157 0.866056 45.5644 1.13158 45.4542C1.39711 45.3439 1.71308 45.2886 2.07949 45.2882C2.32681 45.2879 2.57875 45.3151 2.83529 45.3698C3.09184 45.4245 3.31636 45.5113 3.50885 45.6301L3.15934 46.4343C2.98059 46.3246 2.79502 46.247 2.6026 46.2014C2.41477 46.1558 2.22696 46.1331 2.03918 46.1333C1.81017 46.1335 1.64303 46.1681 1.53777 46.2369C1.4325 46.3057 1.37992 46.3928 1.38003 46.4981C1.38013 46.5897 1.42143 46.663 1.50393 46.7179C1.58643 46.7727 1.69412 46.8184 1.82698 46.8549C1.96442 46.8868 2.11559 46.9187 2.28051 46.9506C2.44543 46.9825 2.60807 47.0235 2.76843 47.0737C2.92878 47.1193 3.0777 47.1833 3.21519 47.2656C3.35269 47.3478 3.46273 47.4576 3.54532 47.595C3.6279 47.7277 3.66931 47.8994 3.66953 48.1101ZM4.35634 49.3116L4.35209 45.3613L5.25895 45.3602L6.89691 48.0172L6.45722 48.0177L8.0551 45.3571L8.96883 45.3561L8.98683 49.3064L7.97004 49.3076L7.96058 46.903L8.11173 46.9029L6.90472 48.8897L6.41694 48.8902L5.16443 46.9061L5.36366 46.9059L5.36625 49.3105L4.35634 49.3116ZM9.44815 49.3059L11.2164 45.3536L12.2881 45.3524L14.0718 49.3008L13 49.302L11.5742 45.8753L11.9383 45.8749L10.4993 49.3048L9.44815 49.3059ZM10.416 48.5216L10.6968 47.7381L12.6479 47.736L12.9305 48.5188L10.416 48.5216ZM14.5408 49.3003L14.5366 45.3499L16.3365 45.3479C16.7029 45.3475 17.0167 45.4067 17.2779 45.5255C17.5437 45.6397 17.75 45.8043 17.8968 46.0194C18.0436 46.2345 18.1171 46.4955 18.1175 46.8024C18.1178 47.1001 18.0448 47.3567 17.8985 47.5721C17.7521 47.7875 17.5462 47.9526 17.2807 48.0674C17.0197 48.1822 16.7061 48.2398 16.3396 48.2402L15.1374 48.2416L15.6247 47.7807L15.6263 49.299L14.5408 49.3003ZM17.0278 49.2975L16.0301 47.8627L17.1843 47.8614L18.1957 49.2962L17.0278 49.2975ZM15.6248 47.9044L15.2258 47.4171L16.2632 47.4159C16.5151 47.4156 16.7051 47.3627 16.8332 47.2573C16.9614 47.1472 17.0253 46.996 17.0251 46.8036C17.0249 46.6067 16.9606 46.4556 16.8323 46.3504C16.7039 46.2452 16.5138 46.1927 16.2619 46.193L15.2245 46.1942L15.6224 45.706L15.6248 47.9044ZM19.637 49.2946L19.6337 46.1893L18.3902 46.1907L18.3893 45.3456L21.9617 45.3416L21.9626 46.1867L20.7191 46.1881L20.7225 49.2934L19.637 49.2946ZM24.4703 49.2892L24.4661 45.3389L25.5516 45.3376L25.5549 48.443L27.4854 48.4408L27.4863 49.2858L24.4703 49.2892ZM28.0731 49.2852L28.0689 45.3348L29.1544 45.3336L29.1586 49.284L28.0731 49.2852ZM32.1372 49.3562C31.7113 49.3567 31.331 49.2701 30.9965 49.0964C30.662 48.9182 30.3983 48.6734 30.2056 48.3622C30.0129 48.051 29.9164 47.6984 29.916 47.3045C29.9155 46.9106 30.0113 46.5601 30.2034 46.2531C30.3954 45.946 30.6585 45.7029 30.9927 45.5239C31.3268 45.345 31.7069 45.2552 32.1328 45.2547C32.5588 45.2543 32.939 45.3432 33.2735 45.5214C33.6081 45.6997 33.8717 45.9421 34.0644 46.2488C34.2571 46.5554 34.3537 46.9057 34.3541 47.2996C34.3545 47.6935 34.2587 48.0462 34.0667 48.3579C33.8746 48.6696 33.6115 48.9149 33.2774 49.0939C32.9432 49.2683 32.5632 49.3557 32.1372 49.3562ZM33.4641 50.2204C33.2351 50.2206 33.0244 50.1888 32.8319 50.1249C32.6441 50.0656 32.4516 49.9582 32.2545 49.8027C32.062 49.6517 31.8419 49.4459 31.5943 49.1851L32.7345 48.909C32.8354 49.0463 32.9225 49.1538 32.9959 49.2316C33.0738 49.3094 33.1517 49.3643 33.2296 49.3962C33.3075 49.4282 33.3923 49.4441 33.4839 49.444C33.7037 49.4438 33.9029 49.3543 34.0813 49.1754L34.5697 49.7451C34.437 49.9056 34.2769 50.0248 34.0892 50.1029C33.9015 50.181 33.6931 50.2201 33.4641 50.2204ZM32.1363 48.47C32.3561 48.4697 32.5484 48.4214 32.7132 48.3251C32.8826 48.2241 33.0152 48.0843 33.1112 47.9055C33.2072 47.7268 33.2551 47.5252 33.2549 47.3008C33.2546 47.0764 33.2063 46.8772 33.1099 46.7033C33.0136 46.5293 32.8806 46.3921 32.711 46.2915C32.546 46.1909 32.3536 46.1407 32.1338 46.141C31.9185 46.1412 31.7262 46.1918 31.5568 46.2928C31.3875 46.3937 31.2525 46.5313 31.1519 46.7054C31.0559 46.8796 31.0081 47.0789 31.0083 47.3033C31.0086 47.5277 31.0569 47.7292 31.1532 47.9077C31.2542 48.0862 31.3895 48.2258 31.559 48.3263C31.7286 48.4223 31.921 48.4702 32.1363 48.47ZM36.952 49.3509C36.5627 49.3513 36.2282 49.2807 35.9487 49.139C35.6692 48.9973 35.4537 48.7938 35.3022 48.5283C35.1554 48.2582 35.0818 47.94 35.0814 47.5736L35.079 45.327L36.1644 45.3258L36.1668 47.538C36.1672 47.8449 36.2361 48.0761 36.3737 48.2317C36.5112 48.3872 36.7083 48.4649 36.9648 48.4646C37.2212 48.4643 37.4158 48.3862 37.5485 48.2304C37.6811 48.0745 37.7473 47.8431 37.747 47.5363L37.7446 45.3241L38.8163 45.3229L38.8187 47.5694C38.8191 47.9358 38.7462 48.2542 38.5999 48.5246C38.4536 48.7904 38.2409 48.9945 37.9617 49.1368C37.6824 49.2791 37.3459 49.3504 36.952 49.3509ZM39.8342 49.2721L39.83 45.3217L40.9155 45.3205L40.9197 49.2709L39.8342 49.2721ZM41.9677 49.2697L41.9635 45.3194L43.8253 45.3173C44.2787 45.3168 44.6727 45.3965 45.0072 45.5564C45.3463 45.7164 45.6076 45.9451 45.7912 46.2426C45.9793 46.5355 46.0735 46.8858 46.074 47.2934C46.0744 47.6964 45.9809 48.0469 45.7934 48.3448C45.6105 48.6382 45.3497 48.8652 45.011 49.0259C44.6768 49.1865 44.283 49.2671 43.8296 49.2676L41.9677 49.2697ZM43.0523 48.4166L43.7943 48.4158C44.037 48.4155 44.2454 48.3718 44.4193 48.2845C44.5979 48.1973 44.7351 48.0712 44.8311 47.9062C44.9271 47.7366 44.975 47.5328 44.9748 47.2946C44.9745 47.0519 44.9262 46.8481 44.8298 46.6833C44.7335 46.514 44.5959 46.3859 44.4172 46.2991C44.2431 46.2122 44.0346 46.169 43.7919 46.1692L43.0499 46.1701L43.0523 48.4166Z" fill="white"/>
<defs>
<filter id="filter0_dii_905_459" x="103.014" y="8.40816" width="30.586" height="30.8614" filterUnits="userSpaceOnUse" color-interpolation-filters="sRGB">
<feFlood flood-opacity="0" result="BackgroundImageFix"/>
<feColorMatrix in="SourceAlpha" type="matrix" values="0 0 0 0 0 0 0 0 0 0 0 0 0 0 0 0 0 0 127 0" result="hardAlpha"/>
<feOffset/>
<feGaussianBlur stdDeviation="4.37233"/>
<feComposite in2="hardAlpha" operator="out"/>
<feColorMatrix type="matrix" values="0 0 0 0 0 0 0 0 0 0 0 0 0 0 0 0 0 0 0.25 0"/>
<feBlend mode="normal" in2="BackgroundImageFix" result="effect1_dropShadow_905_459"/>
<feBlend mode="normal" in="SourceGraphic" in2="effect1_dropShadow_905_459" result="shape"/>
<feColorMatrix in="SourceAlpha" type="matrix" values="0 0 0 0 0 0 0 0 0 0 0 0 0 0 0 0 0 0 127 0" result="hardAlpha"/>
<feOffset dy="0.699573"/>
<feGaussianBlur stdDeviation="1.3117"/>
<feComposite in2="hardAlpha" operator="arithmetic" k2="-1" k3="1"/>
<feColorMatrix type="matrix" values="0 0 0 0 1 0 0 0 0 1 0 0 0 0 1 0 0 0 0.4 0"/>
<feBlend mode="normal" in2="shape" result="effect2_innerShadow_905_459"/>
<feColorMatrix in="SourceAlpha" type="matrix" values="0 0 0 0 0 0 0 0 0 0 0 0 0 0 0 0 0 0 127 0" result="hardAlpha"/>
<feOffset dy="-1.04936"/>
<feGaussianBlur stdDeviation="1.22425"/>
<feComposite in2="hardAlpha" operator="arithmetic" k2="-1" k3="1"/>
<feColorMatrix type="matrix" values="0 0 0 0 0 0 0 0 0 0 0 0 0 0 0 0 0 0 0.25 0"/>
<feBlend mode="normal" in2="effect2_innerShadow_905_459" result="effect3_innerShadow_905_459"/>
</filter>
<filter id="filter1_dii_905_459" x="93.1975" y="0.27047" width="50.2247" height="46.3822" filterUnits="userSpaceOnUse" color-interpolation-filters="sRGB">
<feFlood flood-opacity="0" result="BackgroundImageFix"/>
<feColorMatrix in="SourceAlpha" type="matrix" values="0 0 0 0 0 0 0 0 0 0 0 0 0 0 0 0 0 0 127 0" result="hardAlpha"/>
<feOffset/>
<feGaussianBlur stdDeviation="4.37233"/>
<feComposite in2="hardAlpha" operator="out"/>
<feColorMatrix type="matrix" values="0 0 0 0 0 0 0 0 0 0 0 0 0 0 0 0 0 0 0.25 0"/>
<feBlend mode="normal" in2="BackgroundImageFix" result="effect1_dropShadow_905_459"/>
<feBlend mode="normal" in="SourceGraphic" in2="effect1_dropShadow_905_459" result="shape"/>
<feColorMatrix in="SourceAlpha" type="matrix" values="0 0 0 0 0 0 0 0 0 0 0 0 0 0 0 0 0 0 127 0" result="hardAlpha"/>
<feOffset dy="0.699573"/>
<feGaussianBlur stdDeviation="1.3117"/>
<feComposite in2="hardAlpha" operator="arithmetic" k2="-1" k3="1"/>
<feColorMatrix type="matrix" values="0 0 0 0 1 0 0 0 0 1 0 0 0 0 1 0 0 0 0.4 0"/>
<feBlend mode="normal" in2="shape" result="effect2_innerShadow_905_459"/>
<feColorMatrix in="SourceAlpha" type="matrix" values="0 0 0 0 0 0 0 0 0 0 0 0 0 0 0 0 0 0 127 0" result="hardAlpha"/>
<feOffset dy="-1.04936"/>
<feGaussianBlur stdDeviation="1.22425"/>
<feComposite in2="hardAlpha" operator="arithmetic" k2="-1" k3="1"/>
<feColorMatrix type="matrix" values="0 0 0 0 0 0 0 0 0 0 0 0 0 0 0 0 0 0 0.25 0"/>
<feBlend mode="normal" in2="effect2_innerShadow_905_459" result="effect3_innerShadow_905_459"/>
</filter>
<linearGradient id="paint0_linear_905_459" x1="6.31492" y1="0" x2="6.31492" y2="12.9053" gradientUnits="userSpaceOnUse">
<stop stop-color="#F24572"/>
<stop offset="0.9375" stop-color="#E41882"/>
</linearGradient>
<linearGradient id="paint1_linear_905_459" x1="9.65808" y1="9.79442" x2="-1.47718" y2="2.00752" gradientUnits="userSpaceOnUse">
<stop stop-color="#EC008C"/>
<stop offset="1" stop-color="#FC6767"/>
</linearGradient>
<linearGradient id="paint2_linear_905_459" x1="101.927" y1="9.03655" x2="135.756" y2="36.581" gradientUnits="userSpaceOnUse">
<stop offset="0.00553601" stop-color="#FF512F"/>
<stop offset="1" stop-color="#DD2476"/>
</linearGradient>
</defs>
</svg>
