<svg width="71" height="70" viewBox="0 0 71 70" fill="none" xmlns="http://www.w3.org/2000/svg">
<path d="M54.1958 11.6666L47.1666 18.6958V19.2208L54.1958 26.25H64.6666V32.0833H51.8041L47.1666 27.4458V35H44.25C42.7029 35 41.2191 34.3854 40.1252 33.2914C39.0312 32.1975 38.4166 30.7137 38.4166 29.1666V21.875H29.2583C28.9958 22.9541 28.5583 23.975 27.975 24.9375L44.775 55.4166H58.8333C60.3804 55.4166 61.8641 56.0312 62.9581 57.1252C64.052 58.2191 64.6666 59.7029 64.6666 61.25V64.1666H6.33328V61.25C6.33328 59.7029 6.94786 58.2191 8.04183 57.1252C9.13579 56.0312 10.6195 55.4166 12.1666 55.4166H31.4458L17.7666 30.625C15.2125 30.5817 12.743 29.7027 10.736 28.1224C8.72902 26.5421 7.29523 24.3477 6.65412 21.875C6.27321 20.3888 6.18916 18.8421 6.4068 17.3234C6.62444 15.8047 7.13948 14.3439 7.92243 13.0245C8.70539 11.7051 9.74089 10.5531 10.9697 9.63444C12.1984 8.71578 13.5963 8.0485 15.0833 7.67079C21.2958 6.06663 27.6541 9.79996 29.2583 16.0416H38.4166V8.74996C38.4166 7.20286 39.0312 5.71913 40.1252 4.62517C41.2191 3.53121 42.7029 2.91663 44.25 2.91663H47.1666V10.4708L51.8041 5.83329H64.6666V11.6666H54.1958ZM17.9999 13.125C16.4529 13.125 14.9691 13.7395 13.8752 14.8335C12.7812 15.9275 12.1666 17.4112 12.1666 18.9583C12.1666 20.5054 12.7812 21.9891 13.8752 23.0831C14.9691 24.177 16.4529 24.7916 17.9999 24.7916C19.547 24.7916 21.0308 24.177 22.1247 23.0831C23.2187 21.9891 23.8333 20.5054 23.8333 18.9583C23.8333 17.4112 23.2187 15.9275 22.1247 14.8335C21.0308 13.7395 19.547 13.125 17.9999 13.125Z" fill="url(#paint0_linear_938_449)"/>
<defs>
<linearGradient id="paint0_linear_938_449" x1="35.4777" y1="2.91663" x2="35.4777" y2="64.1666" gradientUnits="userSpaceOnUse">
<stop stop-color="#FF512F"/>
<stop offset="1" stop-color="#DD2476"/>
</linearGradient>
</defs>
</svg>
