<svg width="70" height="72" viewBox="0 0 70 72" fill="none" xmlns="http://www.w3.org/2000/svg">
<path d="M15.9519 37.1417H15.448C13.9916 37.1417 12.5958 37.7249 11.5723 38.761C10.5649 39.7807 10 41.1563 10 42.5898V70.8354H36.9612V40.9844C36.9612 39.5509 36.3963 38.1753 35.389 37.1556C34.3654 36.1195 32.9696 35.5363 31.5132 35.5363H31.4104C29.8882 35.5363 28.4294 36.1458 27.3596 37.2287L26.0555 38.5488C24.2022 40.4248 21.1731 40.4248 19.3198 38.5488C18.4304 37.6484 17.2175 37.1417 15.9519 37.1417Z" fill="url(#paint0_linear_938_942)" stroke="url(#paint1_linear_938_942)" stroke-width="1.34443"/>
<path d="M12.3789 27.4892C12.1179 27.4892 11.8536 27.4892 11.586 27.4892H10V29.0946V70.8351H36.9612V29.0946V27.4892H35.3753C35.1076 27.4892 34.8434 27.4892 34.5823 27.4892M12.3789 27.4892V24.2784M12.3789 27.4892C20.9187 27.4892 26.0425 27.4892 34.5823 27.4892M12.3789 24.2784H11.586H10V22.673V13.0405L21.1017 1.8027L23.4806 1L25.8596 1.8027L31.4104 7.42162L36.9612 13.0405V22.673V24.2784H35.3753H34.5823M12.3789 24.2784H34.5823M34.5823 27.4892V24.2784" stroke="url(#paint2_linear_938_942)" stroke-width="1.34443"/>
<path d="M46.1808 48.8376H45.8494C44.8914 48.8376 43.9733 49.2212 43.3001 49.9027C42.6374 50.5734 42.2659 51.4783 42.2659 52.4211V71H59.9999V51.3651C59.9999 50.4223 59.6284 49.5174 58.9657 48.8467C58.2925 48.1652 57.3744 47.7816 56.4164 47.7816H56.3488C55.3476 47.7816 54.388 48.1825 53.6843 48.8948L52.8266 49.7631C51.6075 50.9971 49.6151 50.9971 48.3961 49.7631C47.811 49.1709 47.0133 48.8376 46.1808 48.8376Z" fill="url(#paint3_linear_938_942)" stroke="url(#paint4_linear_938_942)" stroke-width="0.884313"/>
<path d="M43.8306 42.4885C43.6589 42.4885 43.4851 42.4885 43.309 42.4885H42.2659V43.5445V70.9998H59.9999V43.5445V42.4885H58.9568C58.7807 42.4885 58.6069 42.4885 58.4352 42.4885M43.8306 42.4885V40.3766M43.8306 42.4885C49.4478 42.4885 52.818 42.4885 58.4352 42.4885M43.8306 40.3766H43.309H42.2659V39.3206V32.9847L49.5681 25.5929L51.1329 25.0649L52.6977 25.5929L56.3488 29.2888L59.9999 32.9847V39.3206V40.3766H58.9568H58.4352M43.8306 40.3766H58.4352M58.4352 42.4885V40.3766" stroke="url(#paint5_linear_938_942)" stroke-width="0.884313"/>
<defs>
<linearGradient id="paint0_linear_938_942" x1="23.4806" y1="35.5363" x2="23.4806" y2="70.8354" gradientUnits="userSpaceOnUse">
<stop stop-color="#FF512F"/>
<stop offset="1" stop-color="#DD2476"/>
</linearGradient>
<linearGradient id="paint1_linear_938_942" x1="23.4806" y1="35.5363" x2="23.4806" y2="70.8354" gradientUnits="userSpaceOnUse">
<stop stop-color="#FF512F"/>
<stop offset="1" stop-color="#DD2476"/>
</linearGradient>
<linearGradient id="paint2_linear_938_942" x1="23.4806" y1="1" x2="23.4806" y2="70.8351" gradientUnits="userSpaceOnUse">
<stop stop-color="#FF512F"/>
<stop offset="1" stop-color="#DD2476"/>
</linearGradient>
<linearGradient id="paint3_linear_938_942" x1="51.1329" y1="47.7816" x2="51.1329" y2="71" gradientUnits="userSpaceOnUse">
<stop stop-color="#FF512F"/>
<stop offset="1" stop-color="#DD2476"/>
</linearGradient>
<linearGradient id="paint4_linear_938_942" x1="51.1329" y1="47.7816" x2="51.1329" y2="71" gradientUnits="userSpaceOnUse">
<stop stop-color="#FF512F"/>
<stop offset="1" stop-color="#DD2476"/>
</linearGradient>
<linearGradient id="paint5_linear_938_942" x1="51.1329" y1="25.0649" x2="51.1329" y2="70.9998" gradientUnits="userSpaceOnUse">
<stop stop-color="#FF512F"/>
<stop offset="1" stop-color="#DD2476"/>
</linearGradient>
</defs>
</svg>
