<svg width="71" height="70" viewBox="0 0 71 70" fill="none" xmlns="http://www.w3.org/2000/svg">
<path d="M14.552 2.81982V15.5176L20.8711 22.5887V47.6123H17.3335L14.1077 66.8768H57.8495L54.6234 47.6123H51.0901V22.5887L57.4092 15.5176V2.81982H50.0349V8.83135H45.5448V2.81982H38.1702V8.83135H33.7356V2.81982H26.3612V8.83135H21.9266V2.81982H14.552Z" fill="url(#paint0_linear_938_442)"/>
<path d="M22.7263 51.3398L37.0073 36.4301C37.8157 35.5618 38.5043 34.7535 39.0731 34.005C39.642 33.2565 40.0761 32.508 40.3755 31.7596C40.6749 31.0111 40.8246 30.2327 40.8246 29.4243C40.8246 28.8554 40.7198 28.3016 40.5102 27.7627C40.3007 27.2238 39.9863 26.7447 39.5671 26.3256C39.148 25.9064 38.639 25.5771 38.0402 25.3376C37.4415 25.0681 36.7529 24.9334 35.9744 24.9334C34.8667 24.9334 33.9086 25.2029 33.1003 25.7418C32.3218 26.2507 31.7081 26.9842 31.259 27.9423C30.8398 28.9004 30.6303 30.0081 30.6303 31.2656H24.343C24.343 29.0201 24.7921 26.9992 25.6903 25.2029C26.5885 23.4065 27.9058 21.9844 29.6423 20.9365C31.4087 19.8587 33.5643 19.3198 36.1092 19.3198C37.9953 19.3198 39.642 19.6192 41.0491 20.218C42.4862 20.7868 43.6688 21.5503 44.5969 22.5083C45.555 23.4364 46.2586 24.4693 46.7077 25.607C47.1867 26.7447 47.4262 27.8824 47.4262 29.0201C47.4262 30.6967 47.022 32.2685 46.2137 33.7355C45.4053 35.2026 44.3425 36.5349 43.0251 37.7324L34.8517 45.4568H48.01V51.3398H22.7263Z" fill="#010101"/>
<defs>
<linearGradient id="paint0_linear_938_442" x1="35.9786" y1="2.81982" x2="35.9786" y2="66.8768" gradientUnits="userSpaceOnUse">
<stop stop-color="#FF512F"/>
<stop offset="1" stop-color="#DD2476"/>
</linearGradient>
</defs>
</svg>
