<svg width="215" height="26" viewBox="0 0 215 26" fill="none" xmlns="http://www.w3.org/2000/svg">
<path d="M215 3.71243H6.69556M215 8.16734H161.436H107.872L81.09 20.7896" stroke="url(#paint0_linear_272_2055)" stroke-width="2.23183"/>
<path d="M74.5012 22.2819C74.5012 24.3362 76.1666 26.0016 78.221 26.0016C80.2753 26.0016 81.9407 24.3362 81.9407 22.2819C81.9407 20.2275 80.2753 18.5621 78.221 18.5621C76.1666 18.5621 74.5012 20.2275 74.5012 22.2819ZM80.6948 22.2819C80.6948 23.6481 79.5872 24.7557 78.221 24.7557C76.8547 24.7557 75.7471 23.6481 75.7471 22.2819C75.7471 20.9156 76.8547 19.808 78.221 19.808C79.5872 19.808 80.6948 20.9156 80.6948 22.2819Z" fill="#EF3B52"/>
<path d="M-5.81741e-05 3.7657C-5.81741e-05 5.84544 1.68922 7.5314 3.77304 7.5314C5.85687 7.5314 7.54614 5.84544 7.54614 3.7657C7.54614 1.68596 5.85687 0 3.77304 0C1.68922 0 -5.81741e-05 1.68596 -5.81741e-05 3.7657ZM6.28241 3.7657C6.28241 5.14887 5.15893 6.27015 3.77304 6.27015C2.38715 6.27015 1.26367 5.14887 1.26367 3.7657C1.26367 2.38253 2.38715 1.26125 3.77304 1.26125C5.15893 1.26125 6.28241 2.38253 6.28241 3.7657Z" fill="#FC4E35"/>
<defs>
<linearGradient id="paint0_linear_272_2055" x1="-7.81136" y1="25.987" x2="215" y2="25.987" gradientUnits="userSpaceOnUse">
<stop stop-color="#FF512F"/>
<stop offset="0.817209" stop-color="#DD2476"/>
<stop offset="1" stop-opacity="0"/>
</linearGradient>
</defs>
</svg>
