<svg width="289" height="36" viewBox="0 0 289 36" fill="none" xmlns="http://www.w3.org/2000/svg">
<path d="M289 5.98843H9M289 11.9868H217H145L109 28.9822" stroke="url(#paint0_linear_302_926)" stroke-width="3"/>
<path d="M100.144 30.9915C100.144 33.7576 102.382 36 105.144 36C107.905 36 110.144 33.7576 110.144 30.9915C110.144 28.2254 107.905 25.983 105.144 25.983C102.382 25.983 100.144 28.2254 100.144 30.9915ZM108.469 30.9915C108.469 32.8312 106.98 34.3225 105.144 34.3225C103.307 34.3225 101.818 32.8312 101.818 30.9915C101.818 29.1519 103.307 27.6605 105.144 27.6605C106.98 27.6605 108.469 29.1519 108.469 30.9915Z" fill="#EF3B52"/>
<path d="M5.72205e-05 6.06016C5.72205e-05 8.86046 2.27076 11.1305 5.07181 11.1305C7.87286 11.1305 10.1436 8.86046 10.1436 6.06016C10.1436 3.25986 7.87286 0.989777 5.07181 0.989777C2.27076 0.989777 5.72205e-05 3.25986 5.72205e-05 6.06016ZM8.44487 6.06016C8.44487 7.92255 6.9347 9.43232 5.07181 9.43232C3.20891 9.43232 1.69874 7.92255 1.69874 6.06016C1.69874 4.19777 3.20891 2.688 5.07181 2.688C6.9347 2.688 8.44487 4.19777 8.44487 6.06016Z" fill="#FC4E35"/>
<defs>
<linearGradient id="paint0_linear_302_926" x1="-10.5" y1="35.9804" x2="289" y2="35.9804" gradientUnits="userSpaceOnUse">
<stop stop-color="#FF512F"/>
<stop offset="0.817209" stop-color="#DD2476"/>
<stop offset="1" stop-opacity="0"/>
</linearGradient>
</defs>
</svg>
