<svg xmlns="http://www.w3.org/2000/svg">
  <symbol fill="none" viewBox="0 0 48 48" id="telegram">
    <g clip-path="url(#a)">
      <path fill="#fff" d="M24 .75c-13.258 0-24 10.295-24 23 0 12.706 10.742 23 24 23s24-10.294 24-23c0-12.705-10.742-23-24-23Zm11.787 15.757-3.939 17.788c-.29 1.261-1.074 1.567-2.167.974l-6-4.238-2.894 2.67c-.32.306-.59.566-1.21.566l.426-5.852 11.12-9.626c.483-.409-.107-.64-.746-.232l-13.741 8.29-5.923-1.77c-1.287-.39-1.316-1.234.27-1.828l23.14-8.55c1.074-.371 2.013.25 1.664 1.808Z"/>
    </g>
    <defs>
      <clipPath id="a">
        <path fill="#fff" d="M0 0h48v48H0z"/>
      </clipPath>
    </defs>
  </symbol>

  <symbol fill="none" viewBox="0 0 49 48" id="vkontakte">
    <path fill="#fff" d="M24.59.96c-12.702 0-23 10.297-23 23s10.298 23 23 23c12.704 0 23-10.297 23-23s-10.297-23-23-23Zm8.846 25.95s2.034 2.007 2.535 2.939c.014.02.022.038.026.048.204.342.252.608.151.807-.167.33-.742.494-.939.508h-3.594c-.249 0-.771-.064-1.404-.5-.486-.34-.965-.899-1.432-1.443-.697-.81-1.301-1.51-1.91-1.51a.727.727 0 0 0-.227.037c-.46.148-1.05.805-1.05 2.554 0 .546-.431.86-.735.86H23.21c-.56 0-3.481-.197-6.069-2.926-3.167-3.342-6.018-10.045-6.042-10.108-.18-.433.191-.666.596-.666h3.63c.484 0 .642.295.752.556.13.305.604 1.514 1.383 2.875 1.262 2.219 2.036 3.12 2.657 3.12a.719.719 0 0 0 .333-.087c.81-.45.659-3.337.623-3.936 0-.113-.003-1.291-.417-1.857-.297-.41-.803-.565-1.11-.623.125-.171.288-.31.477-.405.556-.277 1.558-.318 2.552-.318h.553c1.078.014 1.356.084 1.747.182.79.19.807.7.738 2.446a38.19 38.19 0 0 0-.043 1.718c0 .143-.008.297-.008.46-.023.889-.052 1.897.576 2.312a.518.518 0 0 0 .273.079c.218 0 .874 0 2.652-3.05a23.274 23.274 0 0 0 1.425-3.052c.036-.063.142-.254.266-.329a.637.637 0 0 1 .297-.07h4.267c.465 0 .784.07.844.25.105.285-.02 1.155-1.967 3.793l-.87 1.147c-1.766 2.315-1.766 2.432.11 4.188Z"/>
  </symbol>

  <symbol fill="none" viewBox="0 0 49 48" id="instagram">
    <path fill="#fff" d="M31.502 24a7.2 7.2 0 0 1-14.4 0c0-.41.043-.811.117-1.2h-2.517v9.593c0 .667.54 1.207 1.207 1.207h16.788a1.207 1.207 0 0 0 1.205-1.207V22.8h-2.518c.075.389.118.79.118 1.2Zm-7.2 4.8a4.803 4.803 0 0 0 4.434-6.64 4.8 4.8 0 0 0-7.831-1.555 4.801 4.801 0 0 0 3.397 8.195Zm5.76-9.84h2.877a.723.723 0 0 0 .723-.72v-2.877a.722.722 0 0 0-.723-.723h-2.877a.722.722 0 0 0-.723.723v2.877c.003.396.327.72.723.72Zm-5.76-18a23.04 23.04 0 1 0 0 46.08 23.04 23.04 0 0 0 0-46.08Zm12 32.374c0 1.466-1.2 2.666-2.667 2.666H14.968a2.674 2.674 0 0 1-2.666-2.666V14.667c0-1.467 1.2-2.667 2.666-2.667h18.667c1.467 0 2.667 1.2 2.667 2.667v18.667Z"/>
  </symbol>
</svg>
